<svg width="160" height="60" viewBox="0 0 160 60" xmlns="http://www.w3.org/2000/svg">
<g clip-path="url(#clip0_21_2)">
<path d="M34.5182 0.180264C35.6767 0.0610646 36.8353 0.00146484 37.9939 0.00146484H47.1941C49.1705 0.0809312 51.3002 0.259731 52.9869 1.61066C54.4351 2.74305 55.1677 4.72971 55.4744 6.67664C55.8152 8.6633 55.747 10.7096 55.7641 12.7161C55.8663 14.8418 55.73 16.9477 55.7641 19.0734C55.7129 21.1991 55.6107 23.4043 54.7929 25.3512C54.2307 26.7022 53.1573 27.6756 51.9476 28.1127C50.1928 28.7882 48.3357 28.7882 46.5126 28.8478H38.1642C36.0856 28.808 33.9389 28.8478 31.9285 28.1127C30.5825 27.6359 29.4239 26.4836 28.8787 24.9539C28.0098 22.5898 28.095 19.9873 28.0269 17.4642C28.0439 14.4047 27.9757 11.3652 28.1291 8.32557C28.2824 6.19984 28.5721 3.85558 29.901 2.26626C31.0936 0.815995 32.8655 0.398797 34.5182 0.180264ZM37.8746 3.06092C36.3242 3.12052 34.7226 3.02119 33.2233 3.57745C32.3885 3.87545 31.6559 4.57078 31.2981 5.50451C30.7358 6.95477 30.7358 8.56396 30.6677 10.1334C30.6507 12.5174 30.5655 14.9014 30.6507 17.2854C30.6847 19.2323 30.5825 21.2388 31.1277 23.1063C31.4003 24.0798 32.0307 24.9142 32.8655 25.2718C34.1263 25.8082 35.4893 25.7486 36.8012 25.828C39.6295 25.8479 42.4747 25.828 45.303 25.828C46.8364 25.828 48.3868 25.8678 49.9202 25.5896C50.9595 25.4108 52.0158 24.795 52.4758 23.6427C53.2425 21.7355 53.1403 19.5502 53.1573 17.5039C53.2595 14.9213 53.1403 12.3188 53.1403 9.73609C53.0551 8.04743 53.004 6.19984 52.118 4.76945C51.1639 3.37879 49.4942 3.21985 48.0801 3.12052C44.6896 3.00132 41.2821 3.02119 37.8746 3.06092ZM1.02229 0.140531C9.62627 0.160398 18.2132 0.160398 26.8172 0.140531C26.8342 1.15373 26.8172 2.16692 26.8342 3.16025C19.0992 3.19999 11.3641 3.16025 3.612 3.18012C3.59496 5.74291 3.612 8.3057 3.612 10.8685H19.4058C21.4333 10.9877 23.6141 11.1466 25.3179 12.5571C26.8002 13.7889 27.2942 16.0338 27.3965 18.0403C27.5157 20.3846 27.4646 22.8679 26.5787 25.0334C25.8801 26.722 24.4319 27.7948 22.9156 28.2716C21.4504 28.7484 19.8999 28.8676 18.3836 28.8478C15.0272 28.8478 11.6878 28.8676 8.33141 28.8279C6.1506 28.669 3.76534 28.1524 2.18084 26.2254C0.9371 24.795 0.579311 22.6692 0.528198 20.7025H3.15199C3.23717 21.9938 3.4757 23.3844 4.36166 24.2784C5.77577 25.689 7.75214 25.8082 9.52404 25.8678C12.4715 25.8678 15.4361 25.8876 18.3836 25.8678C20.0873 25.7883 21.9615 25.7486 23.3586 24.4771C24.5001 23.444 24.7897 21.656 24.8408 20.0667C24.8919 18.3781 24.7216 16.4113 23.5289 15.259C22.3193 14.1465 20.7177 14.0074 19.2355 13.9081H1.00525C1.02229 9.3189 1.02229 4.72971 1.02229 0.140531ZM56.8545 0.140531C65.4414 0.140531 74.0283 0.160398 82.6153 0.140531C82.6323 1.15373 82.6323 2.16692 82.6153 3.18012C74.8973 3.16025 67.1792 3.16025 59.4612 3.18012C59.4612 5.74291 59.4442 8.3057 59.4612 10.8685H73.7728C75.5447 10.8486 77.3677 10.9082 79.0885 11.4446C80.2982 11.8221 81.4738 12.577 82.1723 13.8087C83.0242 15.2789 83.1946 17.1265 83.2457 18.8549C83.2798 20.9607 83.1946 23.1858 82.3427 25.1128C81.7634 26.4439 80.7241 27.4372 79.5315 27.9538C77.7937 28.7286 75.9195 28.8875 74.0795 28.8478C70.7912 28.8478 67.503 28.8676 64.2147 28.8478C62.2043 28.7286 60.0746 28.2716 58.456 26.7618C56.9226 25.3314 56.2922 22.9275 56.3604 20.7025H58.9842C59.0012 22.113 59.376 23.6427 60.3983 24.497C61.7783 25.689 63.5843 25.7883 65.2199 25.8678C67.9459 25.8876 70.6719 25.8678 73.398 25.8678C75.1358 25.828 76.9929 25.8876 78.5774 24.9142C79.77 24.2586 80.4004 22.7487 80.5537 21.2786C80.7071 19.6098 80.7582 17.8218 80.0597 16.2921C79.5826 15.2391 78.6285 14.6233 77.6744 14.3054C76.4988 13.9478 75.2891 13.8683 74.0965 13.8882C68.3378 13.8882 62.5961 13.9081 56.8374 13.8882C56.8715 9.3189 56.8715 4.72971 56.8545 0.140531Z" fill="#F15A23"/>
<path d="M1.95927 33.4767C3.50969 31.5894 5.87791 31.1722 8.00761 31.053C12.727 31.0331 17.4294 31.0331 22.1488 31.053C24.2444 31.1722 26.5786 31.5298 28.146 33.3575C29.6624 35.1455 29.9179 37.7878 29.9691 40.1718C27.9246 40.1916 25.88 40.1718 23.8355 40.1718C23.8015 39.1983 23.5629 38.1255 22.7962 37.5891C21.6377 36.7944 20.2236 36.8342 18.9117 36.7944C16.0153 36.8143 13.1189 36.7746 10.2395 36.8143C8.9106 36.854 7.34314 37.2315 6.62757 38.7016C5.77569 40.589 5.9631 42.814 5.92902 44.9C5.9631 46.7277 5.8268 48.5555 6.06532 50.3633C6.2357 51.4758 6.67868 52.6082 7.56463 53.1645C8.53578 53.7605 9.66026 53.7605 10.7336 53.7804H19.6102C20.7858 53.7208 22.1147 53.6612 23.0177 52.6678C23.9889 51.5354 24.1081 49.8269 23.8526 48.3171C20.6836 48.3369 17.4975 48.3171 14.3286 48.3369V42.7147H29.9691C29.952 45.8139 29.9861 48.913 29.952 52.0122C29.8668 54.2373 29.6113 56.7802 28.0438 58.2901C26.4934 59.7205 24.4148 59.8595 22.5236 59.9986C17.685 60.0185 12.8633 59.9986 8.02465 59.9986C5.91199 59.8993 3.61191 59.4423 2.06149 57.6345C0.44292 55.767 0.0680932 52.9857 -5.7132e-05 50.4626C-5.7132e-05 47.284 -0.0170947 44.1053 -5.7132e-05 40.9267C0.102168 38.3242 0.37477 35.4634 1.95927 33.4767ZM41.9806 31.351C45.0984 31.3311 48.2334 31.3709 51.3512 31.3311C55.6277 40.8075 59.7848 50.3633 64.0272 59.8595C64.1294 56.661 64.0442 53.4625 64.0783 50.2441V31.3311C67.1451 31.351 70.1948 31.3311 73.2616 31.3311C76.635 39.0592 79.9744 46.8271 83.3819 54.5552C86.8916 46.8271 90.3503 39.0592 93.86 31.3311C96.8075 31.351 99.7721 31.3311 102.72 31.351V59.9986H96.7564C96.7564 53.0254 96.7735 46.0721 96.7564 39.099C93.9111 46.0721 91.0147 53.0056 88.2035 59.9787C85.0516 60.0383 81.8996 59.9787 78.7477 59.9986C76.9758 55.7074 75.1868 51.4361 73.4149 47.1648C72.3245 44.4828 71.1489 41.8207 70.1096 39.099C70.0244 46.0721 70.0926 53.0254 70.0755 59.9986H57.127C56.1388 57.714 55.1677 55.4293 54.1795 53.1446H39.3057C38.2664 55.4094 37.2952 57.714 36.29 59.9986H29.3387C33.5129 50.4428 37.7552 40.9068 41.9806 31.351ZM46.7 36.7348C45.0133 40.2313 43.4458 43.8073 41.8102 47.3436H51.5387C50.0053 43.8471 48.4719 40.3307 46.9215 36.8342C46.8703 36.7944 46.7511 36.7547 46.7 36.7348ZM104.832 31.351H130.048V37.0527C123.608 37.0726 117.184 37.0527 110.744 37.0527V42.3173C116.98 42.3173 123.216 42.2975 129.452 42.3372V48.0787H110.744V54.2373H130.048V59.9986H104.832C104.832 50.4428 104.815 40.8869 104.832 31.351ZM134.784 32.2052C136.522 31.4503 138.396 31.3113 140.236 31.3311H150.629C153.134 31.2715 155.877 31.5496 157.904 33.4171C159.438 34.8475 160 37.2116 160.017 39.4367H153.628C153.56 38.7811 153.509 37.9864 152.98 37.5891C152.282 37.0726 151.43 37.0924 150.629 37.0527H140.747C139.913 37.0726 138.941 37.152 138.328 37.9268C137.715 38.8606 137.732 40.1916 138.073 41.2644C138.345 42.0988 139.197 42.3571 139.896 42.3769H149.42C151.396 42.3968 153.406 42.2975 155.366 42.6551C156.729 42.8935 158.126 43.5888 158.893 44.9993C159.949 46.9661 160.017 49.4097 160 51.6546C160 53.8598 159.574 56.2637 158.16 57.853C156.695 59.4423 154.616 59.8993 152.674 59.9986H138.856C136.795 59.939 134.512 59.641 132.927 57.9722C131.462 56.4425 131.189 54.0188 131.172 51.8533H137.221C137.306 53.4029 138.703 54.1976 139.896 54.2174C143.303 54.2373 146.711 54.2174 150.118 54.2174C151.072 54.1777 152.112 54.1777 152.946 53.5618C153.798 52.9261 153.9 51.595 153.764 50.5421C153.696 49.7077 153.202 48.9329 152.52 48.6151C151.652 48.1979 150.697 48.1581 149.777 48.1581H141.259C139.367 48.178 137.459 48.178 135.602 47.7211C134.409 47.4231 133.2 46.8072 132.433 45.6351C131.547 44.2841 131.292 42.5359 131.189 40.8869C131.121 38.8606 131.104 36.6752 131.99 34.8674C132.569 33.6158 133.626 32.7019 134.784 32.2052Z" fill="#6E6F73"/>
</g>

</svg>
