<svg width="151" height="31" viewBox="0 0 151 31" fill="none" xmlns="http://www.w3.org/2000/svg">
<path fill-rule="evenodd" clip-rule="evenodd" d="M0.795593 26.9197H7.38783L9.12192 23.7246L15.8871 23.8638L17.7942 27.0574H24.3873L12.5919 0.807861L0.795593 26.9197ZM10.8578 18.8648C10.8578 18.8648 12.2469 14.0022 12.4171 14.4198C12.591 14.836 13.9792 18.7235 13.9792 18.7235L10.8578 18.8648ZM28.5518 17.8919C28.5518 11.0855 37.9204 14.4206 37.9204 14.4206L41.7363 10.9471C38.4402 8.4458 33.4091 8.58644 33.4091 8.58644C30.8075 8.58644 23.3477 9.28027 22.3064 18.4472C26.4718 33.0314 41.9101 25.2543 41.9101 25.2543L38.0933 21.7823C38.0933 21.7808 28.5518 24.6968 28.5518 17.8919Z" fill="black"/>
<path fill-rule="evenodd" clip-rule="evenodd" d="M109.74 7.19724L106.964 2.75152H76.4324L70.1879 15.9481L63.075 2.61304H32.0227L28.7266 7.19724H42.7767V26.9196H49.369V7.19724H58.3898L70.0141 30.8078L81.4635 7.19724H109.74Z" fill="black"/>
<path fill-rule="evenodd" clip-rule="evenodd" d="M52.5957 27.0582H58.5637V8.86276H52.666L52.5957 27.0582ZM81.3924 27.0582H87.3622V8.86276H81.4636L81.3924 27.0582ZM102.559 27.0582H108.527V8.86276H102.629L102.559 27.0582ZM96.728 12.7517H100.546L100.72 9.00196L93.9544 8.86204C93.9544 8.86204 89.271 8.86204 89.271 12.3348C89.271 15.8076 94.8201 20.6688 94.8201 20.6688C94.8201 20.6688 96.2083 21.641 95.5146 22.4733C94.8201 23.3085 89.0944 22.7539 89.0944 22.7539V26.919H97.4217C97.4217 26.919 101.933 27.3359 101.933 23.447C101.933 19.558 95.6867 14.4199 95.6867 14.4199C94.7363 13.5999 95.2417 12.7517 96.728 12.7517ZM121.71 8.30741C121.71 8.30741 109.22 8.02973 109.567 18.0312C109.913 28.0312 120.67 27.6143 121.71 27.6143C122.751 27.6143 133.16 26.7805 132.986 17.4758C132.814 8.16965 121.71 8.30741 121.71 8.30741ZM121.883 22.6154C121.883 22.6154 115.813 23.3099 115.813 17.892C115.813 12.4755 121.538 13.17 121.538 13.17C121.538 13.17 126.568 13.447 126.74 17.0597C127.435 22.3363 121.883 22.6154 121.883 22.6154ZM145.129 8.86276L144.609 14.9753L134.028 8.30741L134.201 26.9197H140.446V19.9756L150.682 26.9197V8.86276H145.129ZM158.686 23.2941C159.148 23.4966 159.532 23.7979 159.793 24.1646C160.059 24.5263 160.2 24.9377 160.204 25.3573C160.207 25.7769 160.072 26.1897 159.812 26.5541C159.553 26.9277 159.189 27.2219 158.721 27.439C158.253 27.6561 157.754 27.7629 157.222 27.7629C156.701 27.7617 156.19 27.6515 155.739 27.4434C155.282 27.241 154.904 26.9418 154.645 26.5786C154.378 26.2149 154.238 25.8003 154.24 25.3785C154.24 24.963 154.372 24.5627 154.641 24.1797C154.895 23.8146 155.27 23.5128 155.725 23.3078C156.18 23.0975 156.697 22.9873 157.222 22.9883C157.734 22.99 158.238 23.0952 158.686 23.2941ZM155.463 22.8772C154.905 23.1191 154.443 23.4824 154.132 23.9252C153.81 24.3656 153.64 24.8671 153.641 25.3777C153.641 25.8711 153.798 26.3456 154.114 26.8022C154.422 27.2443 154.858 27.5955 155.423 27.8559C155.969 28.1097 156.59 28.2424 157.221 28.2403C157.841 28.2403 158.435 28.1134 159.005 27.8602C159.554 27.6176 160.007 27.2572 160.314 26.8195C160.631 26.3818 160.797 25.8845 160.796 25.3785C160.796 24.8801 160.635 24.3983 160.317 23.9389C160.011 23.5023 159.561 23.1417 159.016 22.8967C158.471 22.6426 157.851 22.5095 157.221 22.5108C156.62 22.5094 156.035 22.6334 155.463 22.8772ZM156.288 26.9551V25.6439H156.65C156.864 25.6439 157.028 25.6792 157.146 25.7492C157.314 25.8523 157.528 26.0918 157.792 26.469L158.134 26.9551H158.889L158.419 26.3507C158.198 26.0672 158.008 25.8646 157.849 25.7405C157.754 25.6692 157.643 25.6131 157.522 25.5753C157.83 25.5573 158.089 25.4737 158.294 25.3179C158.475 25.1851 158.59 25.004 158.617 24.8085C158.643 24.6129 158.58 24.4163 158.438 24.2555C158.294 24.0867 158.074 23.9735 157.781 23.9172C157.611 23.8876 157.344 23.8725 156.977 23.8725H155.657V26.9544L156.288 26.9551ZM156.288 24.2988H156.986C157.285 24.2988 157.491 24.3168 157.606 24.3521C157.84 24.4271 157.958 24.5606 157.958 24.7539C157.958 25.064 157.65 25.2191 157.033 25.2191H156.289L156.288 24.2988Z" fill="black"/>
</svg>
