<svg width="160" height="60" viewBox="0 0 160 60" fill="none" xmlns="http://www.w3.org/2000/svg">
<g clip-path="url(#clip0_21_13)">
<path d="M11.7551 11.4806C11.7551 11.4806 13.6534 5.2871 17.0389 5.2871C20.4244 5.2871 22.228 11.4806 22.228 11.4806L35.2633 62.9357H27.7016L24.1263 49.2971H9.79377L6.28173 62.9357H-1.28L11.7551 11.4806ZM12.2613 39.9996H21.5319L17.8296 23.2615C17.8296 23.2615 17.7029 21.7884 16.8805 21.7884C16.0581 21.7884 15.9628 23.2615 15.9628 23.2615L12.2611 39.9992M41.9392 62.9357V14.5701H30.3592V8.39642C30.3592 8.39642 30.5807 7.34687 31.2451 6.31219C31.9097 5.28247 33.1752 5.2871 33.1752 5.2871H58.012C58.012 5.2871 59.2775 5.35621 59.9736 6.12503C60.6696 6.89847 60.9862 8.39642 60.9862 8.39642V14.5701H49.1845V62.9357H41.9392ZM53.9619 62.9357V54.0763C53.9619 54.0763 61.7451 51.6227 65.6368 42.7541C66.9972 39.7086 68.5475 36.3827 69.1488 32.855C71.3953 19.6106 70.5725 5.28743 70.5725 5.28743H73.5465V25.5187C73.5465 25.5187 73.1352 42.7732 68.0096 51.6869C61.0493 63.8127 53.9619 62.9357 53.9619 62.9357ZM101.105 62.9357V54.0763C101.105 54.0763 93.3216 51.6227 89.4299 42.7541C88.1011 39.7086 86.5506 36.3827 85.9495 32.855C83.703 19.6106 84.5256 5.28743 84.5256 5.28743H81.5514V25.5187C81.5514 25.5187 81.9629 42.7732 87.0883 51.6869C94.0489 63.8127 101.105 62.9357 101.105 62.9357M74.8758 62.9357H80.1912V5.28247H74.8758V62.9357ZM106.104 62.9357V12.4416C106.104 12.4416 106.578 9.96315 107.749 8.13023C108.92 6.29235 111.862 5.2871 111.862 5.2871H121.797C121.797 5.2871 133.662 7.49435 133.662 22.1726C133.662 35.092 124.455 38.4424 124.455 38.4424C124.455 38.4424 123.664 39.1467 123.664 40.5071C123.664 41.8669 124.455 42.685 124.455 42.685L134.896 62.9354H126.638L116.197 42.685C116.197 42.685 115.406 40.7138 115.406 39.0095C115.406 33.6185 121.67 30.9285 121.67 30.9285C121.67 30.9285 126.638 28.5586 126.638 23.0251C126.638 16.3045 121.101 14.3185 121.101 14.3185H114.773C114.773 14.3185 113.919 14.4517 113.444 15.2156C112.938 15.9794 112.938 18.0881 112.938 18.0881V62.9357H106.104ZM140.401 62.9357H147.836V5.28247H140.401V62.9357Z" fill="#CA0D07"/>
<path d="M156.507 0.0158691C157.107 0.0158691 157.709 0.257261 158.278 0.749964C158.879 1.23771 159.323 1.93708 159.639 2.85371C159.955 3.76042 160.145 4.71143 160.145 5.7018C160.145 6.68225 159.987 7.62301 159.639 8.52509C159.323 9.43114 158.88 10.1312 158.31 10.6288C157.74 11.1315 157.108 11.3778 156.507 11.3778C155.874 11.3778 155.241 11.1315 154.672 10.6288C154.102 10.1312 153.659 9.43147 153.342 8.52509C152.994 7.62334 152.836 6.68225 152.836 5.7018C152.836 4.71143 152.994 3.76042 153.342 2.85371C153.659 1.93741 154.102 1.23771 154.703 0.749964C155.273 0.257261 155.874 0.0158691 156.507 0.0158691H156.507ZM156.507 0.961595C155.969 0.961595 155.494 1.1686 154.988 1.57797C154.514 1.98205 154.134 2.5733 153.849 3.32723C153.596 4.0858 153.469 4.87942 153.469 5.70213C153.469 6.52022 153.596 7.30358 153.849 8.05223C154.134 8.8012 154.514 9.38749 154.988 9.80149C155.449 10.2179 155.973 10.4356 156.506 10.4321C157.013 10.4321 157.519 10.2254 157.994 9.80149C158.468 9.38749 158.848 8.8012 159.133 8.05223C159.385 7.30325 159.512 6.51989 159.512 5.70213C159.512 4.87942 159.386 4.0858 159.133 3.32723C158.848 2.5733 158.468 1.98205 157.994 1.57797C157.488 1.1686 157.013 0.961926 156.507 0.961926V0.961595ZM154.893 8.84551V2.71086H156.253C156.696 2.71086 157.044 2.77005 157.234 2.88281C157.456 2.99656 157.614 3.19364 157.74 3.47438C157.867 3.75546 157.93 4.05108 157.93 4.37117C157.93 4.81427 157.836 5.19885 157.614 5.53415C157.424 5.86449 157.139 6.05132 156.791 6.091C156.95 6.18458 157.044 6.29271 157.139 6.41605C157.298 6.65745 157.488 7.06153 157.709 7.63293L158.184 8.84551H157.424L157.076 7.87003C156.791 7.11146 156.57 6.63331 156.412 6.44119C156.285 6.29834 156.127 6.22922 155.905 6.23452H155.526V8.84584L154.893 8.84551ZM155.526 5.39163H156.317C156.665 5.39163 156.95 5.30797 157.076 5.13536C157.203 4.96275 157.266 4.73623 157.266 4.45053C157.266 4.26833 157.235 4.10564 157.171 3.96775C157.108 3.81994 157.013 3.71148 156.918 3.6427C156.792 3.56863 156.57 3.53424 156.254 3.53424H155.526V5.39163Z" fill="black"/>
</g>
<defs>
<clipPath id="clip0_21_13">
<rect width="160" height="60" fill="white"/>
</clipPath>
</defs>
</svg>
