<svg width="160" height="60" viewBox="0 0 160 60" fill="none" xmlns="http://www.w3.org/2000/svg">
<g clip-path="url(#clip0_21_16)">
<path d="M0 0.0166016V25.7062H9.7776V0.0166016H0ZM6.3316 16.6577H3.4428V9.06914H6.3316V16.6577ZM20.6668 33.9376H25.0828C26.746 33.9376 27.546 35.8281 27.546 39.2979C27.546 43.8277 26.2688 44.9002 24.7956 44.9002H20.6668V33.9376ZM13.6328 58.906H26.5864C30.6188 58.906 34.584 52.803 34.584 41.0245C34.584 32.3748 32.6648 28.1756 30.6188 26.3573C32.3156 23.9744 33.4308 20.7549 33.4308 14.827C33.4308 8.80747 32.1548 0.0804752 26.1396 0.0804752H13.6328V58.906ZM20.6668 14.0812H24.3792C25.8188 14.0812 26.7772 15.1526 26.7772 18.1207C26.7772 21.9119 25.85 22.9833 24.3792 22.9833H20.6668V14.0812ZM41.3268 32.7034C41.6172 28.0911 42.7024 25.5372 44.5928 25.5372C46.222 25.5372 47.3728 28.7474 47.3728 32.7096H41.328L41.3268 32.7034ZM53.4524 41.1883C53.4524 24.5503 50.604 15.0712 44.0152 15.0712C38.7652 15.0712 35.2484 25.2086 35.2484 37.6505C35.2484 51.8985 39.2484 59.9754 44.5596 59.9754C48.3316 59.9754 51.8212 55.6897 53.0984 46.4579H47.1824C46.67 48.5183 45.5492 49.5063 44.5232 49.5063C42.5444 49.5063 41.4564 46.0406 41.2952 41.1842L53.4512 41.1821L53.4524 41.1883ZM61.3916 3.12271H55.0556V16.1457H52.2408V26.1945H55.0556V46.634C55.0556 58.3291 58.0316 59.3985 60.7196 59.3985C62.0616 59.3985 63.5032 58.9071 64.7824 58.9071V46.5403C64.3012 46.7154 63.8224 46.7927 63.3408 46.7927C61.7432 46.7927 61.3896 45.0619 61.3896 41.11V26.1924H64.7816V16.1457H61.388V3.12374L61.3916 3.12271ZM65.8336 58.906H72.1668V36.3298C72.1668 29.4891 73.606 28.0839 74.6956 28.0839C76.5488 28.0839 76.7732 31.5485 76.7732 36.4895V58.906H83.11V29.5674C83.11 19.7639 80.3868 15.0691 77.4104 15.0691C74.7264 15.0691 73.316 17.4644 72.228 20.7539H72.1652V0.0804752H65.8332L65.8336 58.906ZM90.0076 32.7034C90.2944 28.0911 91.3844 25.5372 93.2732 25.5372C94.9052 25.5372 96.0532 28.7474 96.0532 32.7096H90.008L90.0076 32.7034ZM102.132 41.1883C102.132 24.5503 99.2884 15.0712 92.6952 15.0712C87.4472 15.0712 83.928 25.2086 83.928 37.6505C83.928 51.8985 87.928 59.9754 93.2424 59.9754C97.0116 59.9754 100.504 54.9047 101.779 45.6759H95.8648C95.3552 47.7354 94.2324 49.5032 93.2064 49.5032C91.2256 49.5032 90.136 46.0386 89.9784 41.1842H102.134L102.132 41.1883ZM118.068 28.5825C117.912 17.6292 113.592 15.0733 110.008 15.0733C106.681 15.0733 102.169 17.8755 102.169 28.6701C102.169 36.0001 104.12 39.9572 108.951 42.098C111.894 43.4146 112.438 44.1564 112.438 46.633C112.438 49.1055 111.127 49.9297 110.297 49.9297C109.528 49.9297 108.922 49.4249 108.601 48.6893C108.119 47.6241 107.866 47.1739 107.835 45.6832H101.791C101.884 56.7281 106.173 59.9836 110.072 59.9836C114.104 59.9836 118.522 56.7642 118.522 44.8992C118.522 37.8926 116.665 34.6814 114.553 32.9486C112.441 31.1395 110.045 30.8088 108.988 29.6498C108.639 29.2419 108.254 28.668 108.254 27.4266C108.254 24.6296 109.276 24.1371 110.174 24.1371C110.685 24.1371 111.199 24.5482 111.578 25.3734C111.998 26.111 112.283 27.1814 112.318 28.5825L118.071 28.5784L118.068 28.5825ZM136.748 0.0804752H130.416V20.8394H130.351C129.392 17.211 127.695 15.0733 125.808 15.0733C120.241 15.0733 118.738 27.2711 118.738 37.3178C118.738 48.0321 121.008 59.9826 125.712 59.9826C128.816 59.9826 129.774 56.9301 130.575 54.2051H130.641V58.906H136.75V0.0845961L136.748 0.0804752ZM130.64 37.4857C130.64 42.5873 130.128 48.1114 127.86 48.1114C125.587 48.1114 125.073 42.5873 125.073 37.4857C125.073 32.4603 125.585 26.9362 127.858 26.9362C130.125 26.9362 130.638 32.4603 130.638 37.4857M148.703 43.6619C148.606 48.1114 147.489 50.3305 146.047 50.3305C144.899 50.3305 144.063 48.3597 144.063 46.3889C144.063 43.497 144.799 42.5873 146.206 41.7704C147.074 41.2656 147.935 40.6948 148.703 39.7069V43.6629L148.703 43.6619ZM154.783 31.7968C154.783 23.5612 154.843 15.0691 146.91 15.0691C142.976 15.0691 138.562 17.0472 138.37 29.075H144.253C144.288 27.268 144.675 24.7089 146.622 24.7089C147.65 24.7089 148.703 25.7855 148.703 28.6711C148.703 31.3919 147.838 32.0472 146.977 32.4623C143.744 34.0272 137.606 33.5276 137.606 47.0503C137.606 56.0266 140.256 59.9816 143.458 59.9816C145.509 59.9816 147.456 58.8215 148.8 54.8696H148.865C148.832 56.0255 148.927 57.7594 149.089 58.9081H155.551C154.846 56.1893 154.786 52.564 154.786 49.3476V31.803L154.783 31.7968ZM156.632 22.7927H156.151V17.7467H155.416V16.6763H157.346V17.7467H156.634V22.7917L156.632 22.7927ZM158.082 22.7927H157.63V16.6773H158.384L158.813 20.8981L159.245 16.6783H160V22.7937H159.542V17.9167L159.026 22.7927H158.594L158.084 17.9177L158.085 22.7979L158.082 22.7927Z" fill="black"/>
</g>
<defs>
<clipPath id="clip0_21_16">
<rect width="160" height="60" fill="white"/>
</clipPath>
</defs>
</svg>
