<svg width="160" height="60" viewBox="0 0 160 60" fill="none" xmlns="http://www.w3.org/2000/svg">
<g clip-path="url(#clip0_21_18)">
<path d="M0.205093 55.6153H4.4087V56.4217H1.81858V57.2923H4.26322V58.1114H1.81858V59.0944H4.50585V59.9255H0.205093V55.6153ZM148.783 55.6153H153.393V56.4766H151.895V59.9252H150.282V56.4766H148.783V55.6153H148.783ZM135.086 55.6153H137.1L138.853 58.1997C138.913 58.2866 138.983 58.4076 139.063 58.5621C139.143 58.7172 139.23 58.9061 139.327 59.1301C139.279 58.9362 139.241 58.741 139.214 58.5451C139.191 58.3826 139.178 58.2195 139.177 58.0563V55.615H140.634V59.9255H138.628L136.807 57.2465C136.721 57.1235 136.643 56.9898 136.572 56.8447C136.497 56.6893 136.432 56.5318 136.376 56.3726C136.433 56.6297 136.476 56.8657 136.502 57.0807C136.53 57.2963 136.542 57.4866 136.542 57.6504V59.9252H135.086V55.6153H135.086ZM123.361 55.6153H127.566V56.4217H124.975V57.2923H127.421V58.1114H124.975V59.0944H127.663V59.9255H123.362V55.6153H123.361ZM108.762 55.6153H111.105L112.158 58.2057C112.2 58.3094 112.231 58.4244 112.258 58.5527C112.284 58.6811 112.303 58.8195 112.315 58.9667C112.335 58.8072 112.36 58.6604 112.388 58.5253C112.419 58.3909 112.452 58.2759 112.489 58.181L113.543 55.6153H115.85V59.9255H114.407V57.0319C114.407 56.8941 114.413 56.7524 114.424 56.6039C114.435 56.4562 114.45 56.299 114.472 56.1312C114.436 56.2602 114.395 56.3846 114.355 56.503C114.315 56.6207 114.27 56.733 114.224 56.8386L112.928 59.9255H111.55L110.282 56.8885C110.235 56.7729 110.193 56.6563 110.156 56.5387C110.116 56.4104 110.077 56.2746 110.042 56.1309C110.062 56.3348 110.077 56.5194 110.09 56.6818C110.102 56.844 110.107 56.9674 110.107 57.0503V59.9255H108.762V55.6153ZM95.6698 55.6153H97.6841L99.437 58.1997C99.4966 58.2866 99.567 58.4076 99.6467 58.5621C99.7265 58.7172 99.8133 58.9061 99.911 59.1301C99.8625 58.9362 99.8248 58.7411 99.7979 58.5451C99.7743 58.3827 99.7621 58.2195 99.7613 58.0563V55.615H101.218V59.9255H99.2126L97.3912 57.2465C97.3068 57.1228 97.226 56.9898 97.1556 56.8447C97.0852 56.7002 97.021 56.5428 96.9604 56.3726C97.0177 56.6297 97.0594 56.8664 97.0852 57.0807C97.1129 57.2963 97.1265 57.4872 97.1265 57.6504V59.9252H95.6698V55.6153ZM86.208 55.6153H87.8215V59.9258H86.208V55.6153ZM76.039 56.5769L75.2558 58.1937H76.7965L76.039 56.5769ZM75.0971 55.6153H77.0434L79.3341 59.9258H77.6103L77.1799 59.0125H74.8503L74.3997 59.9258H72.8027L75.0971 55.6153ZM61.8659 55.6153H66.4759V56.4766H64.9779V59.9252H63.3644V56.4766H61.8659V55.6153ZM51.6729 56.3726V57.4775H52.2398C52.589 57.4775 52.8504 57.4334 53.0245 57.3431C53.1987 57.2529 53.2864 57.1178 53.2864 56.9373C53.2864 56.744 53.1888 56.6009 52.994 56.51C52.8007 56.4187 52.4923 56.3729 52.0728 56.3729L51.6729 56.3726ZM50.0928 55.6153H52.498C53.2991 55.6153 53.8932 55.7076 54.2799 55.8928C54.6681 56.078 54.8614 56.3595 54.8614 56.7373C54.8614 57.0168 54.7596 57.2455 54.555 57.4261C54.3499 57.6066 54.0551 57.7263 53.6698 57.7878C53.9866 57.87 54.2424 58.1054 54.4357 58.4932V58.4966L55.1599 59.9252H53.4784L52.9466 58.745C52.8607 58.5561 52.7444 58.424 52.5975 58.3505C52.4492 58.2776 52.2197 58.2418 51.9071 58.2418H51.6734V59.9252H50.0932L50.0928 55.6153ZM38.0855 55.6153H42.2886V56.4217H39.6985V57.2923H42.1431V58.1114H39.6985V59.0944H42.3862V59.9255H38.0855V55.6153ZM25.9416 55.6153H30.5521V56.4766H29.0536V59.9252H27.4401V56.4766H25.9416V55.6153ZM12.2124 55.6153H14.2267L15.9795 58.1997C16.0391 58.2866 16.1086 58.4076 16.1889 58.5621C16.2686 58.7172 16.3559 58.9061 16.4531 59.1301C16.4051 58.9362 16.3673 58.741 16.34 58.5451C16.3165 58.3827 16.3042 58.2195 16.3034 58.0563V55.615H17.7601V59.9255H15.7543L13.9334 57.2465C13.8475 57.1235 13.7691 56.9898 13.6978 56.8447C13.6234 56.6893 13.5585 56.5318 13.503 56.3726C13.5598 56.6297 13.602 56.8657 13.6283 57.0807C13.656 57.2963 13.6691 57.4866 13.6691 57.6504V59.9252H12.2124V55.6153Z" fill="black" stroke="black" stroke-width="3.16784"/>
<path d="M40.7113 42.4475C40.7113 42.4475 41.0398 43.4766 41.8493 43.0888C42.6589 42.7016 42.9874 42.1205 43.797 42.1205C44.6065 42.1205 47.9818 41.6685 48.7914 42.1205C49.6009 42.5729 49.6821 42.1847 50.0871 42.1847C50.4917 42.1847 51.6809 42.3352 51.6809 42.3352C52.7157 42.2583 52.505 41.0861 51.7569 40.7428C50.677 40.1403 49.2231 39.7532 48.1437 39.15L47.8199 37.4068L48.7106 36.5028V33.5975L48.2244 32.8232L48.0625 30.6283L47.6575 30.2405V29.4013C47.9274 29.1218 48.4741 28.842 48.7444 28.5621C48.8251 28.0239 48.4633 27.6444 48.5445 27.1065C48.3554 26.4177 48.3324 25.5709 48.1437 24.8822V22.3643C48.9265 22.1982 49.1166 21.9508 49.1724 21.7007C49.2442 21.3787 49.0227 20.9996 48.7914 20.2336C48.6834 16.2093 48.6309 12.0265 48.5229 8.00185C48.9537 7.52108 49.4705 7.27201 49.4812 6.91594C49.4897 6.63845 49.0715 6.40743 48.5487 6.0945V5.25499C48.5487 5.25499 49.4395 3.96381 50.1678 3.96381C50.8967 3.96381 51.3824 3.57599 51.3824 3.18917C52.0474 2.24803 50.6536 2.15609 50.6536 2.15609C49.111 2.13335 47.3642 2.18952 45.8601 2.16679C44.5328 2.14639 43.4436 2.0471 42.152 2.02637C41.5851 2.04843 41.0182 2.06983 40.4517 2.09123C39.0583 2.39213 39.3512 2.93173 39.8848 3.23263C40.5324 3.52283 41.0853 3.85549 41.8282 3.86652C42.7349 3.87989 43.4562 4.09186 43.7716 4.73812L44.0147 12.4859C44.0419 14.3902 44.1241 16.2952 44.1513 18.1996C44.1785 20.1039 44.1504 22.0089 44.1771 23.9133L44.339 30.6283C44.339 30.6283 44.1771 31.4675 43.934 31.6614C43.6914 31.8549 43.7721 33.5336 43.7721 33.5336C44.6689 34.0903 44.4784 34.0127 43.8533 34.7606L43.6914 39.7318L43.0433 40.6358C43.0418 40.6355 40.7113 41.6084 40.7113 42.4475ZM1.49851 50.4734C0.29755 50.2976 0.0727503 49.8837 0.499353 49.6396C0.755127 49.4932 1.43938 49.4985 1.74725 49.3962C2.19732 49.2451 2.65677 49.0472 2.92803 48.8078C3.39124 48.3996 3.11059 47.4538 3.66297 46.6838C4.19423 43.4341 4.35333 39.1286 3.82254 37.6803C3.50388 35.448 3.83099 28.0336 3.83099 27.0941C4.18344 26.6424 4.31578 26.6056 4.3186 25.8146C4.31954 25.5054 4.61145 25.0243 4.3003 24.6418C3.84929 24.2747 3.98539 22.8397 3.95019 22.0307C3.8981 20.8271 4.02199 20.8371 4.49224 19.7465C4.66917 19.336 4.72924 18.8478 4.49224 18.4547C4.10929 17.8188 3.55503 18.5533 3.59211 17.2765C3.68221 14.1773 3.8446 11.06 3.73008 7.96206C3.75496 7.68657 4.40026 7.63576 4.5265 7.37498C4.68701 7.04332 4.74051 6.63277 4.5265 6.31783C4.40542 6.1393 3.72774 6.37132 3.52922 6.23625C2.31418 5.40912 0.78751 4.8899 0.0835444 3.78662C-0.189125 3.35867 0.250619 2.41152 0.829278 2.20691C1.78761 1.86756 3.57005 2.21827 4.61896 2.08922C5.18307 2.02002 5.53974 1.78097 6.11136 1.76292C10.567 1.62317 15.1517 1.30589 19.5914 1.61916C20.3024 1.66897 20.5365 2.56197 21.1842 2.78396C22.0721 3.08787 23.3707 3.02267 24.0512 3.54155C25.1424 4.3727 25.9252 5.0574 26.0636 6.20951C26.2335 7.62339 26.5747 9.22516 26.5578 10.3111C26.5437 11.2204 26.1603 12.0416 25.591 12.8239C24.8115 13.8961 23.8832 14.8967 22.8784 15.9556C22.2993 16.566 21.2677 17.1324 21.0251 17.8288C20.7745 18.5483 23.3839 18.02 23.9179 18.6503C24.4314 19.2561 23.4801 19.9658 23.7673 20.6482C24.0235 21.2567 25.5028 21.3162 25.6788 21.9401C26.1317 23.5505 25.132 25.2533 25.5197 26.8734C25.6436 27.3923 26.7986 27.4104 26.9107 27.9306C27.0473 29.0539 26.9985 30.2441 27.0107 31.4377C27.0234 32.7092 27.0928 33.9853 27.0698 35.1936C27.0257 35.6489 26.1889 35.9154 26.1143 36.3681C25.9148 37.5737 26.4963 38.9354 26.1227 40.1176C25.729 41.3626 24.3239 42.2419 23.7757 43.4542C23.3008 44.5053 23.4355 46.0386 22.6696 46.6972C21.4024 46.981 19.8251 47.6163 18.8269 48.1458C17.3687 48.9188 16.4362 49.8048 15.9875 49.8329C15.4178 50.1939 14.2126 49.9526 13.5063 50.1405C12.8549 50.313 12.7934 50.7021 12.1068 50.6386C11.5643 50.5891 11.7332 50.2682 11.3104 50.0134C11.0645 49.8643 10.5905 49.8549 10.3549 50.0134C8.92535 50.8332 9.99162 50.6185 8.36827 50.5116C6.71912 50.4032 3.50904 50.7657 1.5018 50.4728H1.49851V50.4734ZM10.7374 45.7587L11.8524 44.2315L11.5338 39.1811L12.4898 38.241V33.1535C12.4898 32.3825 12.3386 31.6119 12.3386 30.8409C11.2207 30.182 11.7553 30.192 12.6573 29.4314C12.6573 28.6875 12.9093 28.0874 12.9093 27.3435L12.5907 25.4642L13.0689 24.5244C13.0689 23.5826 13.2195 22.82 13.2195 21.8779C13.2195 20.9932 13.2557 20.697 13.4828 20.7522C13.7095 20.8077 14.1281 21.2152 14.8922 21.7385L16.6342 22.9313C17.7066 23.6655 18.7513 23.7324 18.3162 24.9353C17.9098 26.061 19.0779 26.3729 18.7147 27.4903C18.4373 28.3435 18.0731 28.865 18.1539 29.3939C18.2022 29.7112 18.411 30.0312 18.894 30.427C19.3403 30.7924 19.489 30.7697 19.222 31.2194C18.8081 31.9171 18.4556 32.3237 18.4139 32.7426C18.3608 33.2802 18.7724 33.5279 19.1328 34.4778C19.428 35.2551 19.4003 35.7706 19.1272 36.5503L18.1567 39.3245C18.1201 40.024 18.0309 40.7241 17.961 41.4238C17.8554 42.4903 17.6559 42.5177 16.615 43.2803C15.6689 43.9724 14.4519 44.5655 13.5396 45.1843C12.5306 45.4592 11.7454 45.4846 10.7374 45.7587ZM13.174 16.0803C13.9822 16.097 14.3435 16.1545 14.5941 16.0809C14.8448 16.007 14.9846 15.8028 15.3497 15.2976C15.8219 14.6446 16.5211 13.8285 17.1007 13.7674C18.0778 13.6637 18.5875 13.5601 18.5875 13.5601C18.5875 13.5601 19.0986 13.4915 18.924 12.5939C18.7489 11.6962 18.388 10.833 18.7058 10.5912C19.0235 10.3495 19.0906 9.65979 18.7527 9.38363C18.4148 9.10748 18.0938 8.83132 18.6396 8.45152C19.1854 8.07172 19.5613 7.43616 18.2576 7.5398C16.9538 7.64345 16.9698 7.24125 16.8196 6.96476C16.6685 6.68893 15.2465 6.75179 14.5031 6.72136C13.7602 6.82501 13.1355 6.79024 13.1571 7.34222C13.1787 7.89453 13.0539 10.5568 13.0647 10.8326C13.075 11.1094 13.174 16.0803 13.174 16.0803ZM54.4151 40.3132C54.3569 40.5472 53.6008 40.5492 53.659 40.7842C53.7402 41.1125 53.7703 41.6257 54.2354 41.6685C55.5818 41.7929 57.4285 41.4108 58.7637 41.587C59.2912 41.6565 59.3203 42.2971 59.8037 42.4622C60.2012 42.4576 60.8123 42.4676 61.3163 42.4622C61.704 42.3185 61.5998 41.8116 61.978 41.6545C62.4436 41.4606 63.079 41.387 63.5849 41.5194C63.8576 41.591 63.4859 42.1012 63.7741 42.1259C66.1305 42.0624 68.2349 42.2459 70.4641 42.1259C70.9095 42.0737 70.4557 41.6194 70.8203 41.4312C71.2347 41.2165 72.263 41.591 72.3329 41.2292C72.6947 39.359 72.1297 37.2708 72.3765 35.3915C72.4554 34.7897 73.2659 34.4333 73.447 33.8425C73.5071 33.646 73.838 33.6419 73.8647 33.4487C73.9562 32.774 73.9393 31.9563 73.7 31.2923C73.3823 31.0602 72.4113 30.976 72.0926 31.0816C71.7336 31.2695 72.0602 31.9382 71.819 32.2047C71.6998 32.3371 71.2755 32.0723 71.1573 32.2047C71.0409 32.335 71.1911 32.5487 71.2446 32.7175C71.2765 32.8192 71.2737 32.9044 71.1573 32.9455C70.5373 33.1662 69.624 32.6426 69.0773 32.9455C68.5404 33.2431 69.1435 33.8181 68.6892 34.1792C67.9528 34.7636 66.3755 35.106 65.6424 35.6921C64.7704 36.3891 64.8483 37.1006 63.8464 37.7024C63.0621 38.1731 61.7293 38.2229 60.7789 38.4974C59.6775 38.8164 59.1514 39.4041 58.0067 39.6335C57.6613 39.703 57.2389 39.2724 57.345 39.0277C58.2024 37.0478 59.3166 35.0575 60.2425 33.093C60.8362 31.8325 61.1145 31.0378 61.7565 29.7891C62.4206 28.4973 63.2874 26.8998 64.3715 25.7611C64.5851 25.5368 65.297 25.6832 65.4115 25.4244C65.695 24.7819 65.1646 24.0537 65.4115 23.4041C65.5941 22.9227 66.3051 22.4613 66.8936 22.1918C67.2911 22.0096 67.9251 22.2634 68.1007 21.9508C68.5104 21.2209 68.1279 20.4483 68.3855 19.684C68.5592 19.1691 69.0557 18.8542 69.3715 18.3744C69.7906 17.7382 69.7601 17.1859 70.2224 16.565C70.5988 16.0595 71.391 15.3524 71.6191 14.8038C71.9321 14.0502 71.6759 13.6804 71.7772 12.8981C71.8049 12.6875 72.2376 12.5705 72.2498 12.3595C72.3962 9.82528 72.5849 7.28204 72.3761 4.74982C72.3592 4.54354 71.7087 4.55223 71.7143 4.34528C71.7369 3.57198 71.8687 2.88827 71.8087 2.19086C71.7974 2.05479 71.8636 1.94312 71.6721 1.93677C68.7117 1.84851 65.7902 1.89665 62.828 1.92139C60.4016 1.94145 57.9692 1.80304 55.549 1.92139C55.1829 1.93944 54.8548 1.98424 54.6038 2.17481C54.363 2.35802 54.2438 2.74852 54.2574 2.99893C54.3212 4.12429 54.226 5.34927 54.2574 6.70264C54.263 6.95339 54.9567 6.80361 55.0764 7.03965C55.4096 7.69694 55.4354 8.43046 55.3598 9.1272C55.3354 9.3512 54.9539 9.6521 54.9609 9.8761C55.113 10.6551 55.2542 11.2064 55.4542 11.9556C55.5691 12.2455 55.9188 12.4718 56.0211 12.7637C56.1431 13.1127 55.6968 13.8179 56.1999 13.8413C56.367 13.8489 56.9508 13.9181 57.2497 13.8413C57.6341 13.742 57.108 13.2395 57.2497 12.966C57.3497 12.7717 57.8655 12.766 57.9115 12.5621C58.1611 11.4531 57.727 10.1536 57.9739 9.04429C58.0494 8.70628 58.3212 8.34888 58.7304 8.16901C59.0782 8.01522 59.708 8.39903 59.9595 8.16901C60.3078 7.84973 59.9652 7.48163 60.1806 7.10718C60.4889 6.57125 60.9911 6.07744 61.5984 5.69297C62.1564 5.33958 62.7149 4.91699 63.4568 4.86182C65.1168 4.73912 67.102 4.84945 69.35 4.78058C69.5607 4.77356 69.6175 5.00458 69.6334 5.15469C69.7132 5.89323 69.9019 6.89655 69.6334 7.37665C69.2444 8.07406 68.3635 8.85238 67.4699 9.57654C66.8584 10.0714 66.2398 10.5093 65.7682 11.0061C65.2027 11.6009 66.0479 12.4123 65.7583 13.101C65.4622 13.8048 64.6522 14.5534 64.0247 15.1371C63.5099 15.6159 62.7533 15.8609 62.2709 16.3561C61.6683 16.9746 61.3172 17.5841 60.9371 18.2862C60.6208 18.8702 60.4171 19.4864 60.2754 20.1043C60.1637 20.592 60.4913 21.1437 60.181 21.586C59.9539 21.9096 59.4414 21.8498 59.1105 22.1243C58.652 22.5054 58.3836 22.9945 58.1654 23.4713C57.9068 24.0363 57.8852 24.3706 57.4816 24.8912C57.0287 25.4746 56.1196 26.0379 55.7076 26.6364C55.258 27.289 55.2068 28.0824 54.982 28.7915C54.7647 29.4769 54.5831 30.1231 54.3841 30.8118C54.1406 31.6544 53.8867 32.5102 53.9115 33.3708C53.919 33.6322 54.3076 33.8121 54.4785 34.0441C54.623 34.2397 54.9548 34.4407 54.8567 34.6499C54.7225 34.9365 53.9711 34.9572 53.9115 35.2561C53.8496 35.5647 53.9603 35.8495 54.2781 36.0645C54.5545 36.2504 55.1191 36.1691 55.3181 36.4008C55.5316 36.6502 55.4931 37.0127 55.3181 37.2761C55.1721 37.4961 54.6606 37.4426 54.5934 37.6806C54.3222 38.6502 54.6559 39.3403 54.4151 40.3132ZM136.378 49.8569C136.2 49.4557 136.643 49.3772 136.938 49.1679C137.368 48.8616 137.786 48.5628 137.956 47.96C138.021 47.7309 138.349 47.3615 138.425 46.9947C138.537 46.4598 138.367 45.9022 138.162 45.5565C137.894 45.1038 137.452 44.8677 137.613 44.4358C137.669 44.1596 138.545 44.1249 139.236 43.9069C139.598 43.7922 139.909 43.5682 140.025 43.3576C140.176 43.0801 139.673 43.1275 139.417 42.7752C139.144 42.4 139.104 41.8384 138.893 41.5589C138.526 41.0721 137.855 40.4188 137.83 39.8662C137.764 38.3911 138.365 36.902 138.442 35.4828C138.506 34.2925 138.901 34.009 138.774 32.7894C138.711 32.1823 138.253 31.7403 137.78 31.1204C137.389 30.6069 136.874 30.098 136.677 29.6136C136.327 28.751 136.679 27.729 136.466 26.844C136.425 26.6702 135.815 26.4585 135.793 26.283C135.635 25.0681 135.827 23.8243 135.717 22.6228C135.662 22.3968 135.404 22.3536 135.374 22.1253C135.285 21.4516 135.373 20.7956 135.37 20.2129C135.367 19.6997 135.268 19.2601 135.268 18.6633C135.268 18.441 135.009 18.2885 134.999 18.0658C134.936 16.7519 135.013 15.3009 134.989 13.9853C134.962 12.5845 134.842 11.3181 134.999 9.92324C135.026 9.68821 135.693 9.69356 135.68 9.45819C135.618 8.38934 135.488 7.96373 135.523 6.88886C135.527 6.76483 135.884 6.47663 135.898 6.3526C136.002 5.45793 136.158 4.5626 135.838 3.79732C135.607 3.24233 135.023 3.06981 134.353 2.71241C133.761 2.39647 133.102 1.88294 132.554 1.59475C131.854 1.22598 131.388 0.929433 130.858 0.377789C130.539 0.0454646 131.065 0.0163779 131.652 0.00434202C132.407 -0.0117058 133.231 0.0354347 133.95 0.115674C134.193 0.14242 134.65 0.440977 134.88 0.5045C135.434 0.657288 135.795 0.458696 136.362 0.584739C136.795 0.681026 138.602 1.35203 139.088 1.55196C139.753 1.82443 139.968 2.22061 140.662 2.45231C140.787 2.4941 142.929 2.93107 143.178 2.9752C143.758 3.07851 144.119 2.77594 144.699 2.87925C145.373 2.99893 146.571 3.24099 147.328 3.40214C147.754 3.49241 148.023 3.85181 148.46 3.91366C150.576 4.21422 150.198 3.71173 151.874 4.90595C152.368 5.25767 153.184 5.54018 153.551 5.9631C154.071 6.55955 154.126 7.29106 154.456 7.94133C154.714 8.44684 155.287 8.86208 155.424 9.39901C155.79 10.845 155.408 12.3478 155.657 13.8068C155.733 14.2525 156.375 14.7222 156.443 15.1685C156.699 16.8766 156.743 18.5637 156.451 20.2694C156.353 20.8441 155.673 21.0782 155.551 21.6502C155.35 22.6114 155.752 23.595 155.657 24.5642C155.612 25.0283 155.25 25.5127 154.908 25.9082C154.658 26.1971 154.088 26.3011 153.904 26.613C153.423 27.4328 153.544 28.5538 153.32 29.4421C153.251 31.1371 153.3 32.4527 153.402 34.1468C153.474 35.341 153.646 36.4132 153.432 37.5987C153.357 38.0093 152.874 38.2346 152.788 38.6445C152.549 39.7772 152.755 40.9407 152.601 42.0808C152.574 42.2747 152.171 42.4993 152.113 42.6892C152.006 43.7313 151.904 45.2519 151.267 46.4247C150.847 47.1983 149.827 47.978 148.847 48.426C147.898 48.86 146.878 48.9536 145.784 49.1522C145.094 49.2772 144.32 49.217 143.688 49.4507C143.308 49.5912 143.562 49.5932 143.217 49.7697C143.016 49.8707 142.671 49.879 142.483 49.7697C142.216 49.6136 142.298 49.5504 141.987 49.445C141.513 49.2852 140.896 49.2979 140.414 49.445C140.067 49.5514 140.193 49.7446 139.822 49.7961C139.072 49.9004 138.193 50.0358 137.383 50.0201C136.897 50.0134 136.514 50.1692 136.378 49.8569ZM143.416 11.4946C144.47 11.4545 144.676 11.414 145.614 11.7728C146.583 12.1432 146.786 12.3876 147.378 13.0566L148.295 13.6868C149.54 14.5433 150.128 15.7519 150.636 16.8843C150.72 18.1143 151.091 20.2684 150.229 21.3841C149.799 21.9411 149.63 22.371 149.556 22.8438C149.352 24.166 148.825 23.9594 148.29 24.9607C148.144 25.2322 148.177 25.5702 148.163 26.2151L148.021 33.1214C147.991 34.5921 147.602 35.2939 146.768 36.6519C146.278 37.3012 146.021 37.7198 146.021 38.4566C146.021 39.3299 145.77 39.7324 145.283 40.5281C144.986 41.0122 144.689 41.497 144.393 41.9818C144.041 42.5565 143.718 42.7621 143.484 42.6852C143.25 42.6083 143.105 42.2486 143.109 41.6909L143.171 33.2601L143.306 24.2968C143.254 23.6548 143.288 23.5127 142.696 23.037C142.641 22.0694 142.379 21.6321 141.949 20.7114C141.407 19.9852 141.468 19.4553 141.455 18.6252L141.352 12.3956C141.333 11.1218 141.737 11.5578 143.416 11.4946ZM74.6757 47.2201C74.3514 46.09 74.5781 45.1924 74.663 44.3425C74.7034 44.1399 75.2773 44.3291 75.4332 44.158C75.6659 43.9015 75.8757 43.5508 75.7223 43.266C75.6303 43.0951 75.4669 43.3305 75.3294 43.1757C75.1394 42.9634 75.206 42.6197 75.4256 42.4218C75.7462 42.1322 76.3873 42.2071 76.606 41.8728C76.9049 41.4168 76.3924 40.8431 76.606 40.3633C76.6745 40.2109 77.2273 40.5191 77.2804 40.3633C77.5296 39.6301 77.2194 38.8461 77.3766 38.0999C77.4174 37.9053 77.6586 37.8147 77.6905 37.6195C77.8238 36.802 77.8938 35.9605 77.6905 35.1501C77.5643 34.6469 76.9936 34.2842 76.8955 33.778C76.5379 31.9415 76.43 29.9416 76.7618 28.1024C77.0194 26.6745 78.2969 24.4666 79.0478 23.1299C79.5171 22.2938 79.7475 22.5546 80.1694 21.7054C80.298 21.4459 80.3877 21.1434 80.2661 20.8822C80.1136 20.5566 79.5748 20.3082 79.6504 19.9695C79.7433 19.555 80.4595 19.565 80.6509 19.1678C80.9105 18.6272 80.3877 17.9926 80.6509 17.4527C80.9598 16.8175 82.026 16.4527 82.2874 15.8064C82.5371 15.1899 82.2696 14.205 82.5141 13.5872C82.997 12.3669 83.5776 11.5785 84.4059 10.4562C84.8944 9.79352 85.7444 9.23352 86.1264 8.53544C86.4939 7.8631 86.4568 6.97311 86.6206 6.4091C86.0184 5.8735 84.6377 6.6214 83.7315 6.38871C83.272 6.27035 83.2734 5.73509 82.8187 5.60738C81.8444 5.5599 80.9128 5.54385 80.2192 5.91496C79.2885 6.41178 79.281 6.99451 78.9178 7.78152C78.3743 8.95703 78.7887 10.2776 78.1101 11.4167C77.8421 11.8674 76.7477 11.9941 76.2221 12.3087C75.9438 12.4748 75.8147 12.6484 75.4515 12.6484C75.0882 12.6484 74.7719 12.5591 74.6813 12.3087C74.4969 11.7995 74.7175 11.2562 74.6813 10.7306C74.6532 10.3174 74.342 9.89683 74.4889 9.4963C74.5654 9.28768 75.2356 9.36825 75.259 9.15328C75.5467 6.79625 75.1516 4.45494 75.2018 2.20256C75.2196 1.41254 75.5143 1.52956 76.6069 1.52187C78.4471 1.50816 81.3643 1.51819 83.4795 1.51083C87.1908 1.49746 90.9115 1.39883 94.6129 1.47071C95.1639 1.49947 95.881 1.64523 95.919 2.0374C95.9969 2.8311 95.2507 3.59605 94.7349 4.30082C94.4618 4.67393 93.8517 4.91765 93.6504 5.31216C93.3092 5.98149 93.6795 6.77452 93.3195 7.4385C93.0984 7.84605 91.9777 7.92127 91.7623 8.33016C91.4573 8.90855 91.9843 9.6073 91.6661 10.1823C91.5084 10.4679 90.6543 10.3044 90.5102 10.5936C90.0264 11.5725 90.3103 12.6778 89.933 13.6801C89.7241 14.2334 89.1356 14.6212 89.0291 15.1893C88.7404 16.7305 89.2168 18.3049 89.0291 19.8538C88.9878 20.1898 88.4898 20.4219 88.3542 20.7455C88.0369 21.5058 87.837 22.3279 87.4705 23.0778C87.3128 23.4014 86.7271 23.5693 86.6041 23.9009C86.4235 24.387 86.8763 24.946 86.6041 25.4101C86.2616 25.9931 85.0549 26.2319 84.871 26.8507C84.3514 28.5966 85.1741 30.4374 84.7921 32.201C84.6208 32.99 83.6447 33.6102 83.4438 34.3959C83.1852 35.4079 83.6306 36.6044 83.2763 37.6017C82.9346 38.5646 81.9556 39.3991 81.4643 40.3279C81.3493 41.2393 79.816 42.0757 80.6524 42.7645C81.6604 42.8591 83.3335 43.0059 84.504 42.6267C85.0418 42.4525 84.4186 41.6471 84.8888 41.3924C86.3258 40.61 87.9759 40.3279 89.5899 39.7461C90.5126 39.4131 91.6727 39.0955 92.4959 38.6489C92.9136 38.4215 92.9614 37.8819 93.4579 37.7569C93.7574 37.6813 93.8198 38.1989 94.1323 38.2373C95.2075 38.3677 96.1405 38.0397 97.1965 38.2373C97.6189 38.3159 97.6057 38.7204 97.7151 39.0216C97.8141 39.2911 97.9844 39.5813 97.7747 39.8147C97.6479 39.9551 97.189 39.7986 97.0998 39.9524C96.9163 40.269 96.9881 40.6478 97.0998 40.9808C97.188 41.2399 97.5203 41.4014 97.5517 41.6669C97.7169 43.057 97.7718 44.4652 97.5517 45.8513C97.5057 46.1422 97.2739 46.4471 96.8661 46.4772C94.0887 46.3866 91.5211 46.5314 88.7404 46.5374C88.4542 46.5193 88.6184 46.1582 88.3547 46.078C87.638 45.859 86.3446 45.8289 85.5834 45.953C84.6983 46.0977 84.6241 46.6163 83.7334 46.7427C82.1283 46.9717 80.2741 46.7473 78.6554 46.9219C78.0834 46.9834 77.6464 47.3291 77.0851 47.4287C76.3042 47.5675 75.0765 47.7152 74.6757 47.2201ZM31.7859 50.442C30.5849 50.7419 29.1845 50.4427 27.9118 50.4621C27.5194 50.4684 26.8811 50.6874 26.5043 50.6085C26.0932 50.5229 25.4451 49.9419 25.7022 49.6968C26.7066 48.7426 28.6866 48.6236 29.6036 47.627C30.1429 47.0406 29.6379 46.2509 29.8697 45.5695C29.9406 45.3602 30.4554 45.3796 30.6075 45.1937C30.7314 45.0426 30.7675 44.8012 30.6075 44.6681C30.2419 44.3639 30.0105 45.0018 29.866 44.0911C29.7369 43.2763 29.7097 42.4495 29.8162 41.6358C29.8829 41.1172 30.4118 41.2269 30.5113 40.9537C30.6971 40.4449 30.3099 40.0678 30.5019 39.5596C30.5878 39.3312 31.181 39.3887 31.3452 39.1838C31.5015 38.9885 31.5208 38.6957 31.3452 38.5078C30.9862 38.124 30.0096 38.13 29.9007 37.6753C29.7003 36.8388 29.8078 35.9408 29.8284 35.111C29.8505 34.227 29.7655 33.3404 29.8688 32.4397C29.888 32.2725 30.4188 32.2799 30.5019 32.1231C30.6619 31.8185 30.5605 31.4695 30.5019 31.1465C30.4545 30.8877 30.5662 30.3582 30.5385 30.0974C30.4958 29.6975 30.2546 29.5487 30.5155 29.1933C30.6976 28.9456 31.2908 29.0947 31.3457 28.8179C31.6343 27.3549 31.0181 25.8547 31.2401 24.3857C31.2776 24.1369 31.8277 24.1764 31.9201 23.9343C32.0689 23.5452 32.1149 23.0975 31.8727 22.7328C31.7582 22.5606 31.2194 22.5599 31.1983 22.37C30.9618 20.2233 31.3739 18.1939 31.134 16.0472C31.1115 15.8459 30.4188 16.1281 30.4057 15.2558C30.3916 14.3417 30.2733 13.4892 30.2907 12.8172C30.3038 12.3013 31.8657 12.2876 31.8493 11.7718C31.8244 10.9861 31.998 10.0991 31.7437 9.29303C31.662 9.03392 31.1871 9.07672 31.0284 8.836C30.8792 8.60966 31.02 8.38399 31.1566 8.1533C31.3208 7.87581 31.7667 7.70062 31.8718 7.40841C32.0647 6.87516 32.0454 6.29275 31.8718 5.75582C31.815 5.5803 31.3893 5.40879 31.2711 5.24898C31.0519 4.9541 31.1509 4.69365 30.8586 4.43321C30.6563 4.25334 30.0593 4.36367 29.8129 4.21422C29.1798 3.82908 28.8152 3.4008 28.2839 3.05009C27.785 2.72077 27.1121 2.47237 26.7277 1.98692C26.4804 1.67566 26.768 1.13672 27.1679 0.919403C27.4744 0.752238 27.9554 0.790017 28.2957 0.919403C28.5725 1.02438 28.5674 1.44363 28.8781 1.47439C30.2372 1.60913 31.5865 1.18319 32.9263 1.39281C33.5106 1.48442 33.5416 2.01032 34.0865 2.18618C34.4506 2.3042 35.1072 2.07585 35.439 2.23566C35.9257 2.46969 36.3387 2.96784 36.7221 3.24634C37.2149 3.60407 37.6401 3.76355 37.8921 4.27006C38.2098 4.90996 38.0704 5.56625 38.0568 6.23157C38.0446 6.81865 38.1784 7.41309 38.1028 8.00954C38.0775 8.21014 37.5364 8.11552 37.4608 8.30977C37.328 8.65078 37.4228 9.03259 37.6715 9.3385C37.8527 9.5615 38.3426 9.44782 38.4604 9.69122C38.735 10.2596 38.7702 10.9567 38.566 11.5397C38.49 11.757 37.9015 11.6166 37.8827 11.8403C37.6462 14.6647 37.5871 17.5139 37.9883 20.3289C38.0568 20.807 39.1184 20.9775 39.1897 21.4556C39.5877 24.1199 39.2254 26.8166 39.0705 29.4929C39.049 29.874 38.7838 30.3521 38.566 30.6363C38.322 30.9539 38.474 31.2715 38.483 31.6219C38.4947 32.0726 38.4191 32.5637 38.5158 33.0238C38.5707 33.2865 39.3212 33.5366 39.2949 33.8014C39.224 34.5319 39.37 34.877 39.4324 35.5968C39.4624 35.9435 38.5768 36.1601 38.2957 36.4436C38.0934 36.6472 37.9705 37.0427 38.1352 37.2634C38.2906 37.4714 38.5698 37.3657 38.658 37.5927C38.7833 37.9143 38.7936 38.1858 38.5665 38.478C38.4201 38.6659 37.8794 38.6412 37.8283 38.8531C37.6847 39.4476 38.1587 40.0591 38.0395 40.6565C38.0038 40.835 37.4444 40.7782 37.4068 40.9567C37.2196 41.8481 37.619 42.7722 37.4068 43.6608C37.3266 43.9965 36.5968 44.1476 36.5635 44.4873C36.5442 44.6772 37.1755 44.5448 37.3017 44.7126C37.5007 44.9791 37.0009 45.5297 37.4073 45.614C38.7566 45.8955 40.4264 45.8226 41.7855 45.5685C42.5556 45.4241 42.8813 44.6551 43.6745 44.6016C44.6295 44.5374 45.3344 44.9861 46.2787 45.1071C47.5233 45.2669 48.8852 45.2953 50.1068 45.0616C50.8277 44.9232 51.2463 44.3783 51.9864 44.3077C55.1909 44.0008 58.1649 44.1894 61.3984 44.1773C64.456 44.1653 68.3672 44.0556 70.6373 44.2322C71.9316 44.2629 70.5279 47.5253 70.9949 49.2485C71.0963 49.6236 71.5463 49.8335 71.8167 50.1806C72.2479 50.7342 72.415 51.0157 71.2957 51.0124C69.1899 51.005 67.0588 51.1204 64.7737 51.0518C64.3246 51.0385 64.3462 50.4216 63.9304 50.3003C63.4737 50.1672 62.9331 50.4581 62.4539 50.3758C61.7359 50.2521 60.9263 49.762 60.1937 49.7001C58.2395 49.533 56.2703 49.882 54.3208 49.6901C53.8782 49.6466 53.8172 49.0368 53.3718 49.0134C48.8153 48.7761 44.4484 49.1171 39.8871 48.9399C38.91 48.9018 38.8209 48.659 38.2009 48.5307C37.3233 48.3501 35.7544 48.2776 34.9275 48.5537C33.3858 49.0686 33.3905 50.0402 31.7859 50.442ZM86.6408 37.7495C85.6895 37.7291 85.6256 36.6402 85.7012 35.9722C85.7786 35.2888 87.0312 35.3246 87.4785 34.7178C87.8037 34.2758 87.3156 33.4988 87.6873 33.0756C88.0872 32.6199 89.1713 32.6369 89.5711 32.1806C89.8001 31.9205 89.4585 31.4207 89.4688 31.1134C89.4942 30.3862 89.7232 29.8506 89.6762 29.1238C89.6514 28.7457 89.4313 28.063 89.5312 27.6915C89.6697 27.184 90.0935 27.3071 90.3037 26.8123C90.5656 26.1931 90.1296 25.489 90.4079 24.8738C90.5182 24.6297 91.4141 24.7524 91.3507 24.501C91.2728 24.1948 90.4891 24.3596 90.4112 24.053C90.1732 23.1216 90.1601 22.0253 90.513 21.1119C90.7341 20.5409 91.6431 20.1039 91.874 19.5346C92.1153 18.9378 91.6046 18.2608 91.874 17.6703C92.0566 17.2691 92.9863 17.1846 93.1299 16.7757C93.4683 15.8108 93.1665 14.6276 93.5185 13.6657C93.7039 13.1606 94.0732 12.5885 94.5266 12.2722C94.7988 12.0823 95.0437 11.9443 95.1709 11.6447C95.346 11.2345 94.917 10.8898 95.0151 10.4672C95.1033 10.0934 95.5037 9.85303 95.7576 9.52037C96.08 9.10046 96.2142 8.5682 96.523 8.14394C96.9735 7.52342 97.5799 7.00387 97.9023 6.34391C98.1435 5.85144 97.6254 5.04871 97.9342 4.5753C98.3716 3.90564 99.5017 3.92235 99.9325 3.25002C100.281 2.70707 99.6711 1.99762 100.038 1.46035C100.303 1.06918 100.904 0.896334 101.513 0.879283C101.959 0.866579 102.502 1.08657 102.655 1.38579C102.953 1.97154 102.684 2.6753 103.022 3.25002C103.616 4.2607 104.647 4.85647 105.218 5.87417C105.516 6.40475 105.194 7.16736 105.376 7.72402C105.624 8.48061 105.798 9.24355 106.149 9.98041C106.584 10.8978 107.208 11.7878 107.574 12.7196C107.898 13.545 107.976 14.44 108.226 15.2802C108.409 15.893 108.743 16.4557 109.04 17.0441C109.166 17.2969 109.595 17.2324 109.697 17.4915C109.876 17.9485 109.338 18.4456 109.488 18.908C109.667 19.4607 110.501 20.0207 110.639 20.5793C110.863 21.485 110.63 22.3513 110.661 23.2707C110.689 24.1112 110.813 24.8912 110.968 25.6966C111.064 26.1924 111.449 26.8992 111.466 27.2596C111.532 28.6016 111.615 29.9229 111.635 31.2662C111.667 33.2297 111.667 35.3283 111.529 37.2888C111.513 37.5175 111.13 37.6342 111.017 37.8492C110.591 38.6616 110.232 39.1106 109.958 39.9568C109.814 40.4028 109.81 40.8829 109.54 41.2988C109.374 41.5545 108.638 41.7635 108.513 42.0303C108.236 42.6241 108.576 43.2212 108.515 43.962C108.463 44.5996 108.093 44.9664 107.72 45.5591C107.465 45.9643 107.05 46.5966 106.892 47.0188C106.721 47.4775 107.029 47.9803 106.841 48.4357C106.741 48.6737 106.285 48.7888 106.213 49.0321C106.031 49.6396 106.37 50.3033 106.107 50.8954C105.96 51.2314 105.858 51.1822 105.408 51.3267C105.089 51.4286 104.252 51.544 104.204 51.2966C104.001 50.2588 104.412 49.538 104.181 48.5026C103.91 47.291 103.199 46.5541 102.77 45.3649C102.562 44.7878 102.934 43.7447 102.549 43.2158C101.856 42.263 99.6388 41.8778 99.735 40.8073C99.8279 39.7715 100.698 39.0975 101.582 38.255C102.187 37.678 102.58 36.7358 102.957 36.0785C103.234 35.5938 103.396 35.0261 103.407 34.548C103.426 33.8342 103.155 33.5239 102.396 33.0799C100.812 32.1525 98.2515 31.304 96.2799 30.6213C95.9903 30.521 95.652 30.9141 95.652 31.1435C95.652 31.3728 96.0279 31.5507 96.0654 31.7777C96.1753 32.446 95.6079 33.1391 96.0143 33.7459C96.4432 34.3872 98.1356 34.5741 97.8849 35.2611C97.716 35.7211 97.5574 35.883 97.0092 36.108C96.6769 36.2444 96.3081 36.235 95.9199 36.2477C94.7542 36.2858 93.5551 35.9913 92.4287 36.1615C91.2062 36.346 90.1113 36.7485 88.9812 37.1497C88.2341 37.4165 87.4691 37.7676 86.6408 37.7495ZM96.951 27.3251C96.9407 26.6672 96.9182 26.0202 96.9201 25.3726C96.9219 24.8019 96.9421 24.2306 97.0045 23.6525C97.0458 23.2767 97.5287 22.9905 97.5902 22.6161C97.6949 21.9976 97.1613 21.256 97.4044 20.6612C97.5025 20.4199 98.3613 20.6619 98.5556 20.4593C98.6194 20.3924 98.7499 20.006 98.9662 19.6756C99.0972 19.4774 99.3684 19.2999 99.3684 19.224C99.3684 19.1133 99.3576 18.328 99.474 17.6483C99.5421 17.2534 99.627 16.9201 99.7115 16.9174C99.7955 16.9147 99.88 17.2417 100.173 17.5142C100.512 17.8278 100.626 18.1381 100.921 18.4694C101.096 18.665 101.284 18.895 101.572 18.9749C101.939 19.0765 102.379 18.9334 102.744 19.0384C103.017 19.1166 103.084 19.4219 103.329 19.5439C103.496 19.6262 103.877 19.4694 103.915 19.6198C104.088 20.2968 103.939 21.2029 104.089 21.8832C104.126 22.046 104.632 21.9702 104.643 22.136C104.72 23.3202 104.758 24.5064 104.753 25.6929C104.748 26.74 104.71 27.7872 104.634 28.8329C104.613 29.1312 103.507 29.1519 103.198 28.9847C102.602 28.6604 102.224 28.2843 101.443 28.1506C101.117 28.0951 101.133 27.7276 100.824 27.6544C100.139 27.4919 99.2741 27.4515 98.5584 27.4515C98.091 27.4515 97.4161 27.5692 96.9515 27.5274C96.8656 27.5197 96.952 27.392 96.951 27.3251ZM119.179 6.91059C119.181 7.59196 119.284 8.33016 119.286 9.04362C119.291 9.96202 119.198 10.7848 119.202 11.7106C119.207 12.6962 119.309 13.7851 119.309 14.749C119.309 15.5326 119.108 17.0388 119.194 17.6894C119.302 18.5262 119.368 18.6713 120.974 18.6713C121.751 18.6713 122.804 18.1036 123.581 17.5296C124.111 17.1367 124.032 16.4587 124.236 16.1652C124.536 15.7339 125.049 15.3394 125.157 14.8392C125.294 14.1953 124.963 13.6637 125.566 13.2518C125.803 13.089 126.027 11.2402 126.027 10.8336C126.027 10.2539 125.173 9.39366 124.189 8.6247C123.517 8.09813 122.711 7.62573 122.368 7.26532C121.738 6.60502 121.266 6.31515 120.52 6.1968C119.158 5.97915 119.178 6.06842 119.179 6.91059ZM111.983 43.1964C111.73 43.9119 112.503 44.2041 113.418 44.625C114.331 45.0463 115.388 45.5972 116.383 46.1783C118.067 47.1609 119.213 48.9553 120.308 50.7219C120.872 50.2946 120.474 48.3033 120.791 47.1104C120.858 46.8547 121.245 46.6704 121.281 46.4113C121.411 45.4842 121.443 44.5404 121.281 43.616C121.22 43.271 120.752 43.0189 120.627 42.6839C120.529 42.4211 120.552 42.1339 120.627 41.8681C120.718 41.5432 121.076 41.2663 121.117 40.936C121.241 39.9691 121.322 38.9835 121.117 38.024C121.04 37.6616 120.261 37.4573 120.3 37.0919C120.333 36.79 121.249 36.8117 121.281 36.5098C121.37 35.6436 120.949 34.8078 120.799 33.9465C120.459 32.0104 120.262 30.0626 119.981 28.1215C119.88 27.4221 119.488 26.718 119.654 26.0249C120.166 25.0794 120.633 24.1082 121.126 23.3452C121.366 23.1206 121.684 23.5599 121.928 23.7826C122.725 24.5074 123.783 25.4047 124.012 26.3108C124.293 27.4214 123.448 28.4043 123.628 29.5257C123.681 29.853 124.389 29.7945 124.553 30.1024C125.333 31.5744 125.968 33.0963 126.352 34.6459C126.789 36.4119 126.929 38.2126 127.006 40.0052C127.038 40.7842 126.992 41.5866 126.679 42.3349C126.232 43.4024 125.301 44.2536 124.839 45.2856C124.355 46.3649 124.2 46.6865 125.803 46.6862C126.438 46.6855 127.178 46.7035 127.668 46.8781C128.98 47.3451 129.522 48.4233 130.767 48.9743C131.036 49.0937 131.388 49.2592 131.759 49.4066C133.526 50.1114 133.72 49.6246 134.088 48.5226C134.573 47.0656 134.696 45.7517 135.011 44.3148C135.171 43.5859 135.137 42.8384 135.182 42.1015C135.246 41.051 135.357 40.0059 135.281 38.9554C135.246 38.4653 135.25 37.9291 134.799 37.5579C134.46 37.2791 133.46 37.564 133.327 37.2082C133.143 36.7208 134.131 36.3149 134.144 35.8097C133.874 34.448 133.626 33.2287 133.594 31.8867C133.558 30.3043 133.082 31.1007 132.345 30.4805C131.9 30.1057 131.761 29.7751 131.691 29.2866C131.486 27.8567 131.777 26.2743 131.47 24.8534C131.333 24.2182 130.915 23.592 130.326 23.1062C130.112 22.93 129.72 23.1921 129.573 22.9838C129.328 22.6348 130.081 22.3954 129.794 22.0634C129.126 21.2911 127.73 20.7024 126.671 20.1995C126.354 20.0491 125.795 20.3918 125.526 20.1995C125.257 20.0076 125.263 19.4172 125.526 19.221C127.412 19.0264 128.382 18.3938 129.303 17.6362C130.552 16.6098 131.164 15.4658 131.79 14.1826C132.078 13.5908 131.709 12.9001 131.805 12.2779C131.985 11.1268 132.832 10.081 132.55 8.94031C132.14 7.28137 130.991 5.79427 129.672 4.39677C128.939 3.62112 127.801 2.93307 126.613 2.53288C125.624 2.19855 124.795 2.47838 123.743 2.2594C122.526 2.00531 121.551 1.52053 120.309 1.33932C119.342 1.1979 118.328 1.48542 117.366 1.32729C116.765 1.22866 116.668 0.747892 116.057 0.680691C115.637 0.634554 115.207 1.06851 114.783 1.09426C111.85 1.27112 109.442 0.866244 106.523 1.14106C106.087 1.18185 106.211 1.52788 106.572 1.70575C107.112 1.97187 107.932 1.84048 108.535 2.02603C109.617 2.36003 110.448 2.80837 111.249 3.4242C111.913 3.93305 112.183 4.49941 112.786 5.28809C113.033 5.61172 113.746 4.99054 114.258 4.93872C114.905 4.87285 115.355 4.86048 115.763 5.22424C116.13 5.55054 115.371 5.98517 114.938 6.26668C114.062 6.83504 113.466 7.1366 112.692 7.51373C112.163 7.77216 111.225 8.00452 110.832 8.50936C109.959 9.62936 110.994 10.9028 111.33 12.1616C111.454 12.6206 111.594 13.0696 111.74 13.5246C112.215 15.0051 112.056 16.2371 112.345 17.7415C112.439 18.2277 112.923 18.6516 112.999 19.1397C113.089 19.7194 112.943 20.147 113.065 20.7238C113.115 20.9695 113.398 21.2299 113.49 21.4693C113.897 22.5348 114.256 23.8725 114.308 24.9761C114.475 28.5855 114.174 32.1217 114.43 35.7292C114.453 36.0568 115.145 36.1869 115.24 36.5095C115.387 37.0086 114.919 37.5827 114.684 38.0641C113.716 40.039 112.581 41.5161 111.983 43.1961V43.1964ZM157.054 1.40886H156.908V1.9264H157.111C157.255 1.9264 157.365 1.90434 157.439 1.85954C157.513 1.81474 157.551 1.74921 157.551 1.66362C157.551 1.57569 157.511 1.5115 157.431 1.47038C157.352 1.42926 157.226 1.40886 157.054 1.40886ZM157.2 0.982591C157.637 0.982591 157.969 1.03742 158.198 1.14608C158.428 1.25507 158.542 1.41455 158.542 1.62317C158.542 1.76325 158.487 1.88328 158.379 1.98592C158.272 2.08755 158.12 2.16244 157.923 2.21125L158.594 3.16242H157.543L157.002 2.3266H156.908V3.16242H155.945V0.982591H157.2ZM159.42 2.11764C159.42 1.90334 159.364 1.69906 159.251 1.50415C159.14 1.31021 158.975 1.13427 158.766 0.986938C158.557 0.836034 158.308 0.716144 158.034 0.63422C157.76 0.554181 157.467 0.513722 157.171 0.515198C156.862 0.515198 156.573 0.553646 156.304 0.631545C156.035 0.709984 155.792 0.827234 155.59 0.975905C155.378 1.12727 155.209 1.30671 155.094 1.50415C154.979 1.69831 154.92 1.90693 154.92 2.11764C154.92 2.33094 154.977 2.53422 155.091 2.72712C155.205 2.92149 155.372 3.098 155.582 3.24667C155.798 3.40047 156.041 3.51748 156.313 3.59906C156.584 3.68055 156.877 3.72195 157.171 3.72075C157.469 3.72075 157.756 3.67963 158.03 3.59705C158.308 3.51396 158.561 3.39314 158.774 3.24132C158.985 3.09288 159.148 2.92371 159.257 2.73281C159.367 2.53743 159.423 2.32836 159.42 2.11764ZM157.163 0.102301C157.551 0.102301 157.919 0.15245 158.264 0.25208C158.608 0.352485 158.921 0.501451 159.183 0.690053C159.445 0.877946 159.645 1.09459 159.788 1.34099C159.929 1.58806 160 1.8475 160 2.11898C160 2.39447 159.931 2.6519 159.792 2.89262C159.653 3.13267 159.446 3.34963 159.183 3.52985C158.912 3.71918 158.593 3.87067 158.243 3.97652C157.903 4.07934 157.538 4.13268 157.169 4.13336C156.8 4.13405 156.434 4.08209 156.093 3.98053C155.75 3.87625 155.439 3.72507 155.177 3.53553C154.911 3.34982 154.7 3.12818 154.556 2.88359C154.413 2.64153 154.34 2.38151 154.341 2.11898C154.341 1.84884 154.412 1.59074 154.557 1.34333C154.704 1.095 154.917 0.869359 155.184 0.67902C155.438 0.493455 155.743 0.347297 156.08 0.24974C156.424 0.150553 156.792 0.100459 157.163 0.102301Z" fill="#0566B0"/>
</g>
<defs>
<clipPath id="clip0_21_18">
<rect width="160" height="60" fill="white"/>
</clipPath>
</defs>
</svg>
