<svg width="160" height="60" viewBox="0 0 160 60" fill="none" xmlns="http://www.w3.org/2000/svg">
<g clip-path="url(#clip0_21_21)">
<path d="M107.965 1.07227C103.163 1.07227 98.8815 5.31711 96.0979 11.946C95.2761 9.78544 94.2715 7.51602 93.174 5.91851C90.8706 2.39853 87.884 1.32741 84.6922 1.15146C79.2887 0.853678 74.967 6.82894 72.9768 13.5472C71.2956 6.68129 69.7873 3.09598 63.9378 2.50031H49.7624L49.7656 14.5939C49.7656 14.5939 50.4397 15.0345 50.6676 15.5465C50.8578 15.9737 50.9845 17.1534 50.9845 17.1534L50.9512 44.0714C50.9512 44.0714 50.5805 43.521 50.4327 43.1685C50.1576 42.5122 49.7674 40.9609 49.7674 40.9609L42.5045 2.48739L33.2953 2.50036L25.2933 45.3207V36.1551H19.5346C19.0811 38.7145 17.8079 40.4431 16.2722 40.4431C15.463 40.4431 14.5977 40.0524 13.8966 39.19C12.9829 38.0663 12.3001 36.7316 11.7379 34.3604C11.2955 32.166 10.9569 29.4792 10.9177 27.102C11.0526 22.4006 11.7503 20.7249 13.0279 18.786C13.3111 18.3561 14.1023 18.0123 14.3305 18.0101C14.8323 18.0053 15.2506 18.6285 15.4773 19.547C15.8071 20.883 15.3244 22.5012 14.8472 23.6525L19.5031 30.218L26.694 14.8168C24.1854 6.63259 19.6012 1.15329 14.362 1.15329C6.42995 1.15334 -3.05176e-05 13.7125 -3.05176e-05 29.2047C-3.05176e-05 44.6966 6.22416 56.4123 14.362 57.676L15.391 57.7607H26.3376V57.7497H51.8235V57.746L61.4054 57.7183V57.687H62.9043V46.1628C62.9043 46.1628 62.1013 45.8201 61.7709 45.3594C61.4239 44.8757 61.391 44.1138 61.391 44.1138C61.3848 43.8199 61.4137 43.5947 61.4891 43.4025C61.5631 43.2141 61.7361 43.0859 61.8015 43.0579C62.791 42.6341 63.8001 42.0546 64.8101 41.311C67.5049 39.3271 69.7726 36.5045 71.3825 33.3857C72.4598 46.414 78.0533 55.9209 84.8155 57.5083C85.2571 57.612 85.6376 57.6903 86.0506 57.7202C86.1603 57.7281 86.3801 57.711 86.3801 57.711H95.944L95.9149 48.0773C98.4021 53.729 103.248 59.1465 108.139 59.1465C112.136 59.1465 115.72 55.5644 118.247 51.135L118.227 57.7976H130.303L130.365 47.6044L133.514 47.6886V47.5762L137.738 47.6517V57.7607H150.619V44.3663C150.619 44.3663 150.069 44.2941 149.853 43.9866C149.562 43.571 149.261 42.1753 149.261 42.1753L147.451 17.5662C147.451 17.5662 147.505 15.9199 147.739 15.3052C147.931 14.7994 148.562 14.3783 148.562 14.3783V2.50036H135.722V2.83753L134.816 9.07142L133.514 2.79702V2.50036H133.452L133.417 2.33266L133.414 2.50036H121.025V14.968L120.179 12.6093C117.854 5.67315 113.775 1.07227 109.129 1.07227C108.939 1.07227 108.751 1.07922 108.563 1.09438C108.364 1.07964 108.164 1.07226 107.965 1.07227ZM25.134 47.7567L25.1331 47.8783H25.0791C25.0975 47.8379 25.1157 47.7972 25.134 47.7567Z" fill="#0C4DA2"/>
<path d="M14.3525 6.42387C7.81378 6.50814 2.47345 16.2574 2.47345 29.0109C2.47345 41.7644 8.36869 52.7195 15.5047 52.3897L22.4389 52.4297V41.2552H21.1292C20.7178 43.362 18.796 45.4229 17.4026 45.4229C16.6683 45.4229 14.8197 45.2186 14.1359 44.7283C12.9286 43.8628 11.2059 42.6203 9.70807 37.4672C9.30667 35.6608 8.17643 31.2587 8.42895 24.8372C8.55127 20.967 9.75226 16.1357 11.9074 13.9478C12.8471 12.9938 13.7931 12.8373 15.4541 13.1459C16.6465 13.3674 17.8314 15.0836 18.2452 17.1435C18.5651 18.7368 18.4732 20.6781 18.0965 21.7839C18.0696 21.8628 18.0691 21.9327 18.0746 22.008C18.0789 22.0653 18.1152 22.1609 18.1152 22.1609L18.7715 23.2104C18.7715 23.2104 18.9584 23.4761 19.1767 23.4642C19.3034 23.4573 19.53 23.1759 19.53 23.1759L23.2784 15.1238C20.961 8.72326 16.8428 6.42387 14.3525 6.42387ZM108.026 6.20776C101.094 6.20776 95.4741 16.8806 95.4741 30.0466C95.4741 43.2126 101.094 53.8856 108.026 53.8856C114.958 53.8856 120.578 43.2127 120.578 30.0467C120.578 16.8807 114.958 6.20788 108.026 6.20788V6.20776ZM108.108 13.6191C111.676 13.6191 113.588 18.846 114.364 25.0764C114.586 26.8598 114.496 32.7897 114.363 34.7642C113.96 40.7853 111.556 46.653 108.067 46.4724C104.667 46.2963 102.393 43.0565 101.689 34.3431C101.482 31.7941 101.479 28.7321 101.647 26.1715C102.134 18.7468 104.539 13.6191 108.108 13.6191H108.108ZM35.0184 7.68746C35.0184 7.68746 29.5065 38.2169 28.5188 43.7765C27.5311 49.3362 26.4204 49.1682 26.4204 49.1682L26.5023 52.5367L33.1639 52.533L33.1693 49.2972C33.1693 49.2972 32.7419 49.2523 32.4284 48.6633C31.8205 47.521 32.2052 45.2231 32.2052 45.2231L33.7455 37.1576L40.5862 37.1871C40.5862 37.1871 41.9196 44.0019 42.2462 46.2513C42.6723 49.186 41.3415 49.2382 41.3415 49.2382V52.5275L49.7657 52.5182L49.7603 49.2659C49.7603 49.2659 49.2586 49.1093 48.725 48.1566C48.1198 47.076 47.7078 44.8471 47.7078 44.8471L40.8085 7.71877L35.0184 7.68746ZM36.9961 17.0741L39.28 30.089L34.8563 30.1296L36.9961 17.0741ZM52.4573 7.63958L52.4249 11.382C52.4249 11.382 52.9604 11.6961 53.4728 12.8599C53.7444 13.4769 53.5763 21.3086 53.5763 21.3086L53.5673 46.3784C53.5673 46.3784 53.7418 47.3665 53.1559 48.3593C52.9347 48.734 52.7388 49.1313 52.397 49.1922L52.3565 52.5275L60.1641 52.5662L60.183 49.1737C60.183 49.1737 59.9068 48.9508 59.4736 48.1511C59.2291 47.6997 59.0785 47.0501 59.082 46.4023C59.0886 44.1376 59.1145 41.9616 59.109 39.7502C61.8439 38.4019 64.2049 36.1155 65.1252 35.4218C68.5845 32.5962 71.2688 28.1101 71.1116 20.1072C71.0819 14.4372 69.6769 9.78989 66.6672 8.73965C65.2952 7.92822 64.6654 7.7864 64.1241 7.72431L52.4573 7.63952V7.63958ZM61.3866 13.9956C62.2287 13.9625 63.2206 14.3575 63.9843 15.1448C64.936 16.4381 65.5149 17.7778 65.5149 20.6121C65.5542 21.9445 65.3672 23.0902 65.054 24.255C64.728 25.369 63.7417 27.5074 63.119 28.7307C61.2984 31.3949 60.6469 32.1759 59.2006 33.5387L59.1774 14.5459C59.9482 14.2484 60.6396 14.0058 61.3866 13.9956ZM85.463 6.45365C78.9243 6.53791 73.5839 16.2872 73.5839 29.0407C73.5839 41.7942 79.4792 52.7492 86.6152 52.4195L93.5494 52.4594V41.285H92.2397C91.8283 43.3918 89.9065 45.4527 88.5131 45.4527C87.7788 45.4527 85.9303 45.2484 85.2464 44.7581C84.0391 43.8926 82.3164 42.6501 80.8186 37.497C80.4172 35.6905 79.2869 31.2884 79.5395 24.867C79.6618 20.9967 80.8628 16.1655 83.0179 13.9776C83.9576 13.0236 84.9036 12.8671 86.5646 13.1757C87.7571 13.3971 88.942 15.1135 89.3557 17.1733C89.6756 18.7665 89.5837 20.7079 89.207 21.8137C89.1801 21.8926 89.1796 21.9625 89.1851 22.0378C89.1894 22.0951 89.2257 22.1906 89.2257 22.1906L89.882 23.2402C89.882 23.2402 90.0689 23.5059 90.2872 23.494C90.4139 23.4871 90.6405 23.2057 90.6405 23.2057L94.3889 15.1536C92.0715 8.75303 87.9533 6.45365 85.463 6.45365ZM123.715 7.72803L123.722 10.9434C123.722 10.9434 124.409 11.322 124.682 11.7635C124.993 12.2682 124.915 13.1639 124.915 13.1639C124.915 13.1639 122.423 44.8595 122.369 45.4478C122.311 46.0807 122.228 47.5593 121.794 48.3814C121.362 49.1988 120.863 49.3635 120.863 49.3635L120.856 52.5349H127.832V49.5718C127.832 49.5718 127.265 49.4819 126.886 48.7075C126.508 47.9332 126.617 45.8054 126.617 45.8054L128.334 21.8596L131.826 42.4682L136.079 42.588L139.534 20.3946L141.462 45.9233C141.462 45.9233 141.695 47.8424 141.193 48.8274C140.807 49.5853 140.248 49.6916 140.248 49.6916V52.6546H148.33L148.323 49.4833C148.323 49.4833 148.142 49.6101 147.683 48.8568C147.413 48.4138 147.283 46.4382 147.225 45.8053C147.171 45.217 144.993 13.3243 144.993 13.3243C144.993 13.3243 144.955 12.0073 145.308 11.3342C145.563 10.8489 146.083 10.3889 146.083 10.3889L146.071 7.76299L137.68 7.74271L134.609 25.8472L131.681 7.74277L123.715 7.72803Z" fill="#FFCB08"/>
<path d="M155.981 0.880674C153.762 0.880674 151.963 4.56358 151.963 9.10673C151.963 13.6498 153.762 17.3328 155.981 17.3328C158.201 17.3328 160 13.6498 160 9.10673C160 4.56358 158.201 0.880674 155.981 0.880674ZM155.981 1.98658C157.902 1.98658 159.46 5.1744 159.46 9.10673C159.46 13.0391 157.902 16.2269 155.981 16.2269C154.06 16.2269 152.503 13.0391 152.503 9.10673C152.503 5.1744 154.06 1.98658 155.981 1.98658Z" fill="#0C4DA2"/>
<path d="M153.912 4.13843V13.877H154.916V10.5012H156.249L157.353 13.9194L158.48 13.9047L157.133 10.2819C157.686 9.81981 158.078 8.67993 158.078 7.34465C158.078 5.62313 157.427 4.2231 156.618 4.18631V4.14574H154.916V4.13843H153.912ZM154.916 6.10453L156.586 6.12299C156.925 6.24092 157.151 6.31227 157.141 7.3555C157.132 8.47184 156.712 8.62061 156.586 8.62905L154.916 8.66956V6.10453Z" fill="#0C4DA2"/>
</g>
<defs>
<clipPath id="clip0_21_21">
<rect width="160" height="60" fill="white"/>
</clipPath>
</defs>
</svg>
