<svg width="76" height="76" viewBox="0 0 76 76" fill="none" xmlns="http://www.w3.org/2000/svg">
<path fill-rule="evenodd" clip-rule="evenodd" d="M38 76C17.0461 76 0 58.9534 0 38C0 17.0466 17.0466 0 38 0C58.9529 0 76 17.0466 76 38C76 58.9534 58.9534 76 38 76ZM44.4315 23.3018H22.9561L19.6977 28.5387H41.1483L44.4315 23.3018ZM48.8205 23.3519L35.692 44.2567H21.1298L24.4897 39.0156H33.2179L36.5519 33.7777H16.374L13.04 39.0156H17.8201L11.1878 49.4796H38.8661L49.0895 33.357L52.8167 39.0156H49.4563L46.2734 44.2567H56.2263L59.6824 49.4796H66.0316L48.8205 23.3519Z" fill="#FF4747"/>
</svg>
