<svg width="76" height="59" viewBox="0 0 76 59" fill="none" xmlns="http://www.w3.org/2000/svg">
<path d="M69.111 0H6.88905C1.87382 0 0 1.25255 0 4.62338V45.3128C0 45.6996 0.0275562 46.0496 0.0826686 46.3812C0.192893 47.118 0.22045 47.8363 1.24003 48.6468C1.35025 48.7205 2.39739 49.2547 2.39739 49.2547C2.94851 49.4389 3.3343 49.5678 3.96809 49.752L34.583 58.3356C36.1813 58.8146 36.8426 59.0172 38 58.9988C39.1574 59.0172 39.8187 58.833 41.417 58.3356L72.0319 49.752C72.6657 49.5862 73.0515 49.4389 73.6026 49.2547C73.6026 49.2547 74.6497 48.7389 74.76 48.6468C75.7796 47.8363 75.8071 47.118 75.9173 46.3812C75.9724 46.0496 76 45.6996 76 45.3128V4.62338C76 1.25255 74.1537 0 69.111 0Z" fill="#5F5F5F"/>
<path d="M64.808 40.8753L64.7806 40.9664L64.7532 41.0756L64.7257 41.1666L64.6709 41.2576L64.6435 41.3486L64.5886 41.4397L64.5338 41.5307L64.4789 41.6035L64.4241 41.6945L64.3418 41.7673L64.2595 41.8401L64.1772 41.9129L64.095 41.9858L64.0127 42.0586L63.903 42.1314L63.8207 42.186L63.711 42.2588L63.6013 42.3134L63.4916 42.368L63.3819 42.4044L63.2722 42.459L63.1351 42.5137L62.998 42.5501L62.8608 42.6047L62.7237 42.6411L62.5866 42.6775L62.4495 42.7139V42.6957L62.3123 42.7321L62.1752 42.7503L61.9284 42.7867L61.7913 42.8049L61.6541 42.8231L61.517 42.8413L61.3799 42.8595L61.2153 42.8777L61.0782 42.8959H60.5297L60.3926 42.8777H60.228L60.0909 42.8595L59.9538 42.8413L59.7892 42.8231L59.6521 42.8049L59.515 42.7867L59.3779 42.7685L59.2407 42.7503L59.1036 42.7321L58.9665 42.7139L58.8294 42.6775L58.6922 42.6593L58.5551 42.6229L58.418 42.5865L58.2809 42.5501L58.1437 42.5137L58.0066 42.4772L57.8695 42.4408L57.7324 42.4044L57.5952 42.368L57.4581 42.3316L57.321 42.2952L57.1838 42.2406L57.0742 42.186L56.937 42.1314L56.8273 42.0768L56.7176 42.0222L56.6079 41.9676L56.4982 41.9129L56.3885 41.8583L56.2788 41.8037L56.1691 41.7491L56.0594 41.6763L56.1417 41.6035L56.2514 41.5307L56.3337 41.4579L56.4434 41.385L56.5256 41.3122L56.6079 41.2394L56.7176 41.1666L56.7999 41.0938L56.9096 41.021L56.9919 40.9482L57.1016 40.8753L57.1838 40.8025L57.2661 40.7297L57.3758 40.6569L57.4581 40.5841L57.5678 40.5113L57.6501 40.4385L57.7598 40.4931L57.8969 40.5477L58.0066 40.6023L58.1437 40.6569L58.2534 40.7115L58.3906 40.7661L58.5003 40.8207L58.6374 40.8571L58.7471 40.9118L58.8842 40.9482L59.0213 40.9846L59.1585 41.021L59.2956 41.0574L59.4327 41.0938L59.5698 41.1302L59.707 41.1666L59.8441 41.203L59.9812 41.2212L60.2555 41.2576L60.42 41.2758L60.5571 41.294H60.6943L60.8588 41.3122H61.1605L61.325 41.294L61.4622 41.2758L61.5993 41.2576L61.7364 41.2394L61.8461 41.203L61.9558 41.1666L62.0655 41.112L62.1478 41.0392L62.2026 40.9664L62.2575 40.8753L62.2849 40.7843V40.7661L62.2575 40.6569L62.2026 40.5659L62.1204 40.4931L62.0107 40.4385L61.901 40.3839L61.7913 40.3474L61.6541 40.311L61.517 40.2746L61.3525 40.22L61.2428 40.2018L61.1331 40.1836L60.9959 40.1472L60.8588 40.129L60.7217 40.0926L60.5846 40.0744L60.42 40.038L60.2829 40.0198L60.1183 39.9834L59.9812 39.9652L59.8441 39.9288L59.707 39.9106L59.5698 39.8742L59.4327 39.8378L59.2956 39.8195L59.1585 39.7831L59.0213 39.7467L58.8842 39.7103L58.7197 39.6739L58.5825 39.6375L58.4454 39.6011L58.3083 39.5647L58.1712 39.5101L58.034 39.4555L57.9243 39.4009L57.7872 39.3463L57.6775 39.2916L57.5678 39.237L57.4581 39.1824L57.3484 39.1096L57.2387 39.0368L57.1564 38.964L57.0742 38.8912L56.9919 38.8184L56.9096 38.7455L56.8273 38.6545L56.7725 38.5817L56.7176 38.5089L56.6902 38.4179L56.6353 38.3451L56.6079 38.2541L56.5805 38.163L56.5531 38.072L56.5256 37.981L56.4982 37.8718V37.6533L56.5256 37.5623L56.5531 37.4713L56.5805 37.3803L56.6079 37.2893L56.6353 37.1983L56.6902 37.1072L56.7176 37.0162L56.7725 36.9252L56.8273 36.8342L56.8822 36.7432L56.9645 36.6522L57.0467 36.5611L57.129 36.4883L57.2113 36.4155L57.321 36.3427L57.4307 36.2699L57.5404 36.1971L57.6501 36.1243L57.7598 36.0696L57.8695 36.015L57.9792 35.9604L58.0889 35.9058L58.226 35.8512L58.3631 35.8148L58.5003 35.7602L58.6374 35.7238L58.7745 35.6874L58.9116 35.651L59.0488 35.6146L59.1585 35.5964L59.2956 35.5782L59.4327 35.56L59.5698 35.5417L59.707 35.5235L59.8441 35.5053L59.9812 35.4871L60.1183 35.4689L60.2555 35.4507H60.8588L61.0234 35.4689L61.1879 35.4871H61.325L61.4896 35.5053L61.6267 35.5235L61.7913 35.5417L61.9284 35.56L62.0655 35.5782L62.2026 35.5964L62.3398 35.6146L62.4769 35.6328L62.614 35.6692L62.7511 35.7056L62.8883 35.7238L63.0254 35.7602L63.1625 35.7966L63.2996 35.833L63.4368 35.8694L63.5739 35.9058L63.711 35.9604L63.8207 35.9968L63.9578 36.0514L64.095 36.1061L64.2047 36.1607L64.3418 36.2153L64.4515 36.2699L64.5612 36.3245L64.6709 36.3791L64.7806 36.4337L64.6983 36.5065L64.616 36.5793L64.5338 36.6522L64.4515 36.725L64.3692 36.816L64.2869 36.8888L64.2047 36.9616L64.1224 37.0344L64.0401 37.1072L63.9578 37.1801L63.8756 37.2529L63.7933 37.3257L63.711 37.4167L63.6287 37.4895L63.5465 37.5623L63.2722 37.9628L63.1899 38.0356L63.0802 37.981L62.9431 37.9264L62.8334 37.8718L62.7237 37.8172L62.5866 37.7808L62.4769 37.7262L62.3398 37.6898L62.2301 37.6533L62.0929 37.6169L61.9832 37.5805L61.8461 37.5441L61.7364 37.5077L61.5719 37.4713L61.4347 37.4349L61.2976 37.3985L61.1605 37.3803L61.0782 37.4167L60.9411 37.3985L60.804 37.3803L60.6668 37.3621L60.5297 37.3439H60.228L60.0635 37.3621L59.9264 37.3803L59.7892 37.3985L59.6795 37.4349L59.5698 37.4713L59.4327 37.5441L59.3504 37.6351L59.2956 37.7262L59.2682 37.8172V37.8354L59.2956 37.9628L59.3504 38.072L59.4053 38.1266L59.515 38.1994L59.6521 38.2541L59.7618 38.3087L59.8989 38.3451L60.0635 38.3815L60.228 38.4179L60.3377 38.4361L60.4474 38.4725L60.5846 38.4907L60.7217 38.5271L60.8588 38.5453L61.0234 38.5817L61.1879 38.6181L61.3525 38.6545L61.517 38.6727L61.6541 38.7091L61.8187 38.7455L61.9558 38.7638L62.0929 38.8002L62.2301 38.8366L62.3672 38.873L62.5043 38.9094L62.6414 38.9458L62.7786 38.964L62.9431 39.0004L63.0802 39.055L63.2174 39.0914L63.3545 39.146L63.4916 39.2006L63.6287 39.2552L63.7384 39.3099L63.8482 39.3645L63.9578 39.4191L64.0675 39.4919L64.1772 39.5647L64.2869 39.6375L64.3967 39.7103L64.4789 39.7831L64.5612 39.8742L64.6435 39.947L64.7257 40.038L64.7806 40.1108L64.8354 40.2018L64.8629 40.2928L64.8903 40.3839L64.9452 40.5659L64.9726 40.6569L65 40.7661V40.9846L64.808 40.8753ZM55.0721 42.7321H47.0914V35.9786H55.127V37.5077H49.7516V38.6181H54.5785V40.0562H49.7516V41.203H55.2092V42.7321H55.0721ZM44.8974 42.7321H42.3469V38.7455L42.2646 38.8184L42.1823 38.9094L42.1001 38.9822L42.0178 39.055L41.9355 39.146L41.8532 39.2188L41.771 39.2916L41.6887 39.3827L41.6064 39.4555L41.5241 39.5283L41.4418 39.6011L41.3596 39.6921L41.2773 39.7649L41.195 39.8378L41.1127 39.9288L41.0305 40.0016L40.9482 40.0744L40.8659 40.1654L40.8111 40.2382L40.7288 40.311L40.6465 40.4021L40.5642 40.4749L40.482 40.5477L40.3997 40.6387L40.3174 40.7115L40.2626 40.7843L40.1803 40.8571L40.098 40.9482L40.0157 41.021L39.9335 41.0938L39.8786 41.1848L39.7963 41.2576L39.7141 41.3304L39.6318 41.4214L39.5495 41.4943H39.4947L39.4124 41.4032L39.3301 41.3304L39.2478 41.2394L39.1656 41.1666L39.0833 41.0756L39.001 41.0028L38.9187 40.9118L38.8365 40.8389L38.7542 40.7479L38.6993 40.6751L38.6171 40.5841L38.5348 40.5113L38.4525 40.4203L38.5896 40.3292L38.5074 40.2382L38.4251 40.1654L38.3428 40.0744L38.2605 40.0016L38.1783 39.9106L38.096 39.8378L38.0411 39.7831L37.9589 39.7103L37.8766 39.6193L37.7943 39.5465L37.712 39.4555L37.6298 39.3827L37.5475 39.2916L37.4926 39.237L37.4104 39.146L37.3281 39.0732L37.2458 38.9822L37.1635 38.9094L37.0813 38.8184L36.999 38.7455V42.7139H34.3662V35.9604H37.2184L37.3007 36.0332L37.3829 36.1243L37.4652 36.1971L37.5475 36.2881L37.6298 36.3609L37.712 36.4519L37.7943 36.5247L37.8766 36.6158L37.9589 36.6886L38.0411 36.7614L38.1234 36.8524L38.2057 36.9252L38.288 37.0162L38.3702 37.089L38.4525 37.1801L38.5348 37.2529L38.6171 37.3257L38.6993 37.4167L38.7816 37.4895L38.8639 37.5805L38.9462 37.6533L39.0284 37.7444L39.1107 37.8172L39.1656 37.9082L39.2478 37.981L39.3027 38.0538L39.385 38.1448L39.4672 38.2176L39.5495 38.3087L39.6318 38.3815L39.6866 38.4725L39.7689 38.5453L39.8512 38.6363L39.9335 38.7091L40.0157 38.6363L40.098 38.5453L40.1803 38.4725L40.2626 38.3815L40.3448 38.3087L40.4271 38.2176L40.5094 38.1448L40.5917 38.0538L40.6739 37.981L40.7288 37.9082L40.8111 37.8172L40.8933 37.7444L40.9756 37.6533L41.0579 37.5805L41.1402 37.4895L41.2224 37.4167L41.3047 37.3257L41.387 37.2529L41.4693 37.1801L41.5516 37.089L41.6338 37.0162L41.7161 36.9252L41.7984 36.8524L41.8807 36.7614L41.9355 36.6886L42.0178 36.6158L42.1001 36.5247L42.1823 36.4519L42.2646 36.3609L42.3469 36.2881L42.4292 36.1971L42.5114 36.1243L42.5937 36.0332L42.676 35.9604H45.5282V42.7139L44.8974 42.7321ZM28.7715 39.947L28.7166 39.856L28.6618 39.7649L28.6069 39.6739L28.5521 39.5829L28.4972 39.4919L28.4424 39.4009L28.3875 39.3099L28.3327 39.2188L28.2778 39.1278L28.223 39.0368L28.1681 38.9458L28.1133 38.8548L28.0584 38.7638L28.0036 38.6727L27.9487 38.5817L27.8939 38.4907L27.839 38.3997L27.7842 38.3087L27.7293 38.2176L27.6745 38.1266L27.6196 38.0356L27.5648 37.9446L27.5099 38.0356L27.4551 38.1266L27.4002 38.2176L27.3454 38.3087L27.2905 38.3997L27.2357 38.4907L27.1808 38.5817L27.126 38.6727L27.0711 38.7638L27.0163 38.8548L26.9614 38.9458L26.9066 39.0368L26.8517 39.1278L26.7969 39.2188L26.742 39.3099L26.6872 39.4009L26.6323 39.4919L26.5774 39.5829L26.5226 39.6739L26.4678 39.7649L26.4129 39.856L26.3581 39.947L26.3032 40.038H28.6618L28.7715 39.947ZM33.132 42.7321H30.417L30.3621 42.6411L30.3073 42.5501L30.2524 42.459L30.1976 42.368L30.1427 42.277L30.0879 42.186L30.033 42.095L29.9782 42.004L29.9233 41.9129L29.8685 41.8219L29.8136 41.7309L29.7588 41.6399L29.7039 41.5489L29.6491 41.4579L29.5942 41.3668H25.645L25.5901 41.4579L25.5353 41.5489L25.4804 41.6399L25.4256 41.7309L25.3707 41.8219L25.261 41.9858L25.2062 42.0768L25.1513 42.1678L25.0965 42.2588L25.0416 42.3498L24.9868 42.4408L24.9319 42.5319L24.8771 42.6229L24.8222 42.7139H22.0797L22.1346 42.6229L22.2443 42.459L22.2991 42.368L22.354 42.277L22.4637 42.1132L22.5185 42.0222L22.5734 41.9311L22.6282 41.8401L22.6831 41.7855L22.7379 41.6945L22.7928 41.6035L22.8476 41.5125L22.9025 41.4214L22.9573 41.3304L23.0122 41.2394L23.067 41.1484L23.1219 41.0574L23.1767 40.9664L23.2316 40.8753L23.2864 40.7843L23.3961 40.6205L23.451 40.5295L23.5058 40.4385L23.5607 40.3474L23.6155 40.2564L23.6704 40.1654L23.7252 40.0744L23.7801 39.9834L23.8349 39.8924L23.8898 39.8013L23.9446 39.7103L23.9995 39.6193L24.0543 39.5283L24.1092 39.4373L24.164 39.3463L24.2189 39.2552L24.2737 39.1642L24.3286 39.0732L24.3834 38.9822L24.4383 38.8912L24.4931 38.8002L24.548 38.7091L24.6028 38.6181L24.6577 38.5271L24.7125 38.4361L24.7674 38.3451L24.8222 38.2541L24.8771 38.163L24.9319 38.072L24.9868 37.981L25.0416 37.89L25.0965 37.799L25.1513 37.708L25.261 37.5441L25.3159 37.4531L25.3707 37.3621L25.4256 37.2711L25.4804 37.1801L25.5353 37.089L25.5901 36.998L25.645 36.907L25.6998 36.816L25.7547 36.725L25.8095 36.634L25.837 36.5429L25.8918 36.4519L25.9467 36.3609L26.0015 36.2699L26.0564 36.1789L26.1112 36.0878L26.1661 35.9968L26.2209 35.9058L26.2758 35.8148L26.3855 35.651L26.4403 35.56H29.0183L29.0731 35.651L29.128 35.742L29.1828 35.833L29.2377 35.924L29.2925 36.015L29.3474 36.1061L29.4022 36.1971L29.4571 36.2881L29.5119 36.3791L29.5668 36.4701L29.6216 36.5611L29.6765 36.6522L29.7313 36.7432L29.7862 36.8342L29.841 36.9252L29.8959 37.0162L29.9507 37.1072L30.0056 37.1983L30.0604 37.2893L30.1153 37.3803L30.1701 37.4713L30.225 37.5623L30.2798 37.6533L30.3347 37.7444L30.3895 37.8354L30.4444 37.9264L30.4992 38.0174L30.5541 38.1084L30.6089 38.1994L30.6638 38.2905L30.7735 38.4543L30.8283 38.5453L30.8832 38.6363L30.938 38.7273L30.9929 38.8184L31.0477 38.9094L31.1026 39.0004L31.1574 39.0914L31.2123 39.1824L31.2671 39.2734L31.322 39.3645L31.3768 39.4555L31.4317 39.5465L31.4865 39.6375L31.5414 39.7285L31.5962 39.8195L31.6511 39.9106L31.7059 40.0016L31.7608 40.0926L31.8156 40.1836L31.8705 40.2746L31.9253 40.3656L31.9802 40.4567L32.035 40.5477L32.0899 40.6387L32.1447 40.7297L32.1996 40.8207L32.2544 40.9118L32.3093 41.0028L32.3641 41.0938L32.419 41.1848L32.4738 41.2758L32.5287 41.3668L32.5835 41.4579L32.6384 41.5489L32.6932 41.6399L32.7481 41.7309L32.8029 41.8219L32.8578 41.9129L32.9126 42.004L32.9675 42.095L33.0223 42.186L33.0772 42.277L33.132 42.368L33.1869 42.459L33.2417 42.5501L33.2966 42.6411L33.4063 42.8049L33.132 42.7321ZM20.9553 41.8583L20.8456 41.9129L20.7359 41.9676L20.6262 42.0222L20.5165 42.0768L20.4068 42.1314L20.2971 42.186L20.1874 42.2406L20.0503 42.2952L19.9132 42.3498L19.776 42.4044L19.6389 42.4408L19.5018 42.4954L19.3647 42.5319L19.2275 42.5683L19.0904 42.6047L18.9533 42.6411L18.8162 42.6775L18.679 42.7139L18.5419 42.7503L18.4048 42.7867L18.2676 42.8231L18.1305 42.8413L17.9934 42.8595L17.8563 42.8777L17.7191 42.8959L17.582 42.9141L17.4175 42.9323L17.2803 42.9505L17.1158 42.9687L16.9787 42.9869L16.8141 43.0051H16.3753L16.2382 42.9869L16.0736 42.9687L15.9365 42.9505L15.7994 42.9323L15.6623 42.9141L15.5251 42.8959L15.388 42.8777L15.2509 42.8595L15.1138 42.8413L14.9766 42.8231L14.8395 42.8049L14.7024 42.7685L14.5653 42.7321L14.4281 42.6957L14.291 42.6593L14.1539 42.6229L14.0168 42.5865L13.8796 42.5501L13.7425 42.4954L13.6328 42.459L13.4957 42.4044L13.386 42.3498L13.2763 42.2952L13.1666 42.2406L13.0569 42.186L12.9472 42.1314L12.8375 42.0768L12.7278 42.0222L12.6181 41.9493L12.5084 41.8947L12.3987 41.8219L12.289 41.7491L12.2067 41.6763L12.1244 41.6035L12.0422 41.5307L11.9599 41.4579L11.8776 41.385L11.7953 41.3122L11.7405 41.2394L11.6582 41.1484L11.5759 41.0756L11.5211 40.9846L11.4662 40.8936L11.4114 40.8025L11.3565 40.7115L11.3017 40.6387L11.2468 40.5477L11.2194 40.4567L11.1646 40.3656L11.1371 40.2746L11.0823 40.1836L11.0548 40.0926V40.0016L11.0274 39.9106V39.8195L11 39.7285V38.9458L11.0274 38.8366L11.0548 38.7455L11.0823 38.6545L11.1097 38.5635L11.1646 38.4725L11.192 38.3815L11.2468 38.2905L11.3017 38.1994L11.3565 38.1084L11.4114 38.0174L11.4662 37.9264L11.5211 37.8354L11.5759 37.7444L11.6308 37.6533L11.7131 37.5623L11.7953 37.4895L11.8502 37.4167L11.9325 37.3439L12.0147 37.2711L12.097 37.1983L12.1793 37.1254L12.2616 37.0526L12.3438 36.9798L12.4535 36.907L12.5358 36.8342L12.6455 36.7614L12.7552 36.6886L12.8649 36.634L12.9746 36.5611L13.0843 36.5065L13.194 36.4519L13.3037 36.3973L13.4134 36.3427L13.5231 36.2881L13.6328 36.2335L13.7699 36.1789L13.9071 36.1243L14.0442 36.0696L14.1813 36.0332L14.3184 35.9968L14.4556 35.9422L14.5653 35.9058L14.7024 35.8694L14.8395 35.833L14.9766 35.8148L15.1138 35.7784L15.2509 35.7602L15.388 35.7238L15.5251 35.7056L15.6623 35.6874L15.7994 35.6692L15.9365 35.651L16.0736 35.6328L16.2108 35.6146L16.3479 35.5964H16.9238L17.0884 35.6146L17.2529 35.6328H17.39L17.5272 35.651L17.6917 35.6692L17.8288 35.6874L17.966 35.7056L18.1031 35.7238L18.2402 35.742L18.3773 35.7602L18.5145 35.7784L18.6516 35.8148L18.7887 35.833L18.8984 35.8694L19.0355 35.9058L19.2824 35.9786L19.4195 36.015L19.5566 36.0696L19.6938 36.1061L19.8035 36.1607L19.9406 36.2153L20.0503 36.2699L20.1874 36.3245L20.2971 36.3791L20.4068 36.4337L20.5165 36.4883L20.6262 36.5429L20.7359 36.6158L20.8456 36.6704L20.7633 36.7432L20.6536 36.816L20.5714 36.8888L20.4617 36.9616L20.3794 37.0344L20.2971 37.1072L20.1874 37.1801L20.1051 37.2529L20.0229 37.3257L19.9132 37.3985L19.8309 37.4713L19.7212 37.5441L19.6389 37.6169L19.5566 37.6898L19.4469 37.7626L19.3647 37.8354L19.255 37.9082L19.1727 37.981L19.063 37.9264L18.9533 37.8536L18.8436 37.799L18.7339 37.7444L18.6242 37.6898L18.5145 37.6351L18.4048 37.5805L18.2676 37.5259L18.1579 37.4895L18.0482 37.4531L17.9385 37.4167L17.8014 37.3803L17.6643 37.3439L17.5272 37.3257L17.39 37.3075L17.2529 37.2893L17.1158 37.2711L16.9512 37.2529L16.7867 37.2347H16.485L16.3479 37.2529L16.2108 37.2711L16.0736 37.2893L15.9365 37.3075L15.7994 37.3439L15.6623 37.3803L15.5526 37.5987L15.4154 37.6351L15.3057 37.6898L15.196 37.7444L15.0863 37.799L14.9766 37.8536L14.8669 37.9082L14.7572 37.9628L14.675 38.0356L14.5653 38.1084L14.483 38.1812L14.4007 38.2541L14.3184 38.3269L14.2636 38.4179L14.1813 38.4907L14.1265 38.5817L14.0716 38.6727L14.0168 38.7638L13.9619 38.8548L13.9345 38.9458L13.9071 39.0368L13.8796 39.146V39.8195L13.9071 39.9106L13.9345 40.0016L13.9619 40.0926L14.0168 40.1836L14.1813 40.1472L14.2362 40.2382L14.291 40.3292L14.3733 40.4203L14.5104 40.5659L14.5927 40.6387L14.675 40.7115L14.7847 40.7843L14.8669 40.8571L14.9766 40.9118L15.0863 40.9664L15.196 41.021L15.3057 41.0756L15.4154 41.1302L15.5526 41.1666L15.6897 41.203L15.8268 41.2394L15.9639 41.2758L16.1011 41.3122L16.2382 41.3304L16.3753 41.3486L16.5124 41.3668L16.677 41.385H16.9238L17.0884 41.3668L17.2529 41.3486L17.39 41.3304L17.5272 41.3122L17.6643 41.294L17.8014 41.2758L17.9385 41.2576L18.0757 41.2212L18.1854 41.1848L18.3225 41.1484L18.4322 41.112L18.5419 41.0574V40.1472H16.5124V38.8002H21.0376V41.8219L20.9553 41.8583ZM16.485 20.706H22.5185V17.6114H16.485V11.2948H22.7654V8.20024H11.3565V30.5358H22.8476V27.4412H16.485V20.706ZM59.6521 21.3795V26.4218C59.6521 27.3138 59.0213 27.7325 57.7324 27.7325H56.7725C55.4286 27.7325 54.7979 27.3138 54.7979 26.4218V12.3142C54.7979 11.4222 55.4286 11.0036 56.7725 11.0036H57.6227C58.9116 11.0036 59.5424 11.4222 59.5424 12.3142V16.683H64.5612V12.114C64.5612 9.34705 62.5592 8 58.3906 8H55.8949C51.7263 8 49.6694 9.36525 49.6694 12.1504V26.5675C49.6694 29.3526 51.7263 30.7178 55.8949 30.7178H58.418C62.5866 30.7178 64.6435 29.3526 64.6435 26.5675V21.3613H59.6521M41.8807 8.20024H47.0091V30.5358H41.8807V8.20024ZM34.4485 18.1211C34.4485 19.0131 33.8177 19.4317 32.5287 19.4317H30.417V11.2038H32.5287C33.8177 11.2038 34.4485 11.6225 34.4485 12.5144V18.1211ZM33.3514 8.20024H25.3159V30.5358H30.4444V22.4353H33.3514C37.5201 22.4353 39.5769 21.07 39.5769 18.2849V12.3506C39.5769 9.56549 37.5201 8.20024 33.3514 8.20024ZM23.4236 50.7234H52.741L37.7943 54L23.4236 50.7234Z" fill="white"/>
</svg>
