<svg width="89" height="34" viewBox="0 0 89 34" fill="none" xmlns="http://www.w3.org/2000/svg">
<path d="M15.93 31.7164C14.7328 31.132 13.8006 29.8644 12.7863 27.5736C11.6699 25.059 7.68505 14.5659 7.68505 14.5659L14.0404 1.12549H10.6026L4.80132 13.7631C4.5471 14.3127 4.39833 14.6723 4.26846 15.0307H4.23585C4.24482 14.6079 4.25227 14.162 4.25227 13.7265V3.62083C4.25227 2.24684 3.75073 1.12549 3.13202 1.12549H0.122601C-0.0202363 1.12549 -0.0386313 1.46794 0.0693472 1.57813C0.525359 2.04356 0.883371 2.58919 0.883371 4.40353V32.0023H4.25223V17.7775C4.25223 17.4157 4.24478 17.1337 4.23581 16.7221H4.26841C4.38384 17.1426 4.58536 17.6268 4.80132 18.2118C4.80132 18.2118 8.34157 27.4832 8.71774 28.3558C10.2182 31.8545 12.3197 33.0899 15.9137 32.3187C16.1075 32.2744 16.1095 31.8096 15.9299 31.7165" fill="#990014"/>
<path d="M22.4747 29.9738C19.6848 29.9738 18.0918 23.8968 18.0918 16.9578C18.0918 8.96888 19.6848 3.15617 22.4747 3.15617C25.2624 3.15617 26.8554 9.23043 26.8554 16.1717C26.8554 24.3738 25.2624 29.9738 22.4747 29.9738ZM22.4747 0C17.7975 0 14.3478 7.25316 14.3478 16.5678C14.3478 25.8735 17.5243 33.1311 22.4747 33.1311C27.1499 33.1311 30.5989 25.8736 30.5989 16.5679C30.5989 7.25306 27.4231 0 22.4747 0ZM82.1167 32.0024L80.0443 3.82899C79.9383 2.41792 79.3541 1.12545 78.6287 1.12545H76.6868L73.2876 18.7038C73.1297 19.4949 73.0294 20.1098 72.9558 20.5714H72.9374C72.8679 20.0859 72.7692 19.5104 72.6321 18.8007L69.6312 3.12709H69.6292C69.4115 2.00686 68.9102 1.12545 68.284 1.12545H65.306C65.161 1.12545 65.1445 1.4678 65.2527 1.57809C65.6588 1.98976 65.9499 2.64568 65.8272 4.3786L63.7914 32.0023H65.9382L67.2918 12.5193C67.3575 11.5237 67.4344 10.3143 67.46 9.70262H67.4764C67.6321 10.632 67.7988 11.552 67.9765 12.4617L71.7145 32.0023H72.8239L76.6063 12.1193C76.8254 10.9375 76.9707 10.1065 77.071 9.47446H77.0894C77.1312 10.234 77.1991 11.3941 77.2795 12.5608L78.6802 32.0023L82.1167 32.0024ZM87.2111 1.12555H84.0646C83.9185 1.12555 83.9031 1.468 84.0113 1.57819C84.4676 2.04363 84.8256 2.58925 84.8256 4.40359V32.0024H88.3311V3.62038C88.3311 2.24691 87.8295 1.12555 87.2111 1.12555ZM44.036 1.12555V18.777C44.036 19.6418 44.0542 20.1875 44.0703 20.9615H44.036C43.7686 20.1271 43.4718 19.2657 43.0364 18.1255L37.0759 2.77604C36.6086 1.5871 36.2355 1.12944 35.3801 1.12555H32.3507C32.2083 1.12555 32.1919 1.468 32.2994 1.57819C32.7571 2.04363 33.1142 2.58925 33.1142 4.40359V32.0024H35.3801V12.1521C35.3801 11.0845 35.3617 10.2613 35.3476 9.37707H35.3801C35.7976 10.6319 36.3746 12.29 36.8393 13.4889L43.992 32.0024H45.1837C45.8029 32.0024 46.3037 30.8828 46.3037 29.506V1.12555H44.036ZM52.1384 21.1572L54.3096 10.5146C54.4158 9.97554 54.5104 9.49412 54.5435 9.23422H54.5783C54.6211 9.54287 54.7124 10.0132 54.8127 10.5335L56.9271 21.1571L52.1384 21.1572ZM59.0839 32.0025H62.9013L56.8759 3.0298C56.6557 1.98218 56.1782 1.12565 55.556 1.12565H52.9214C52.7753 1.12565 52.7619 1.46083 52.8689 1.57829C53.1911 1.93733 53.414 3.1274 53.1801 4.23708L47.352 32.0026H49.9287L51.3766 24.8912H57.67L59.0839 32.0025Z" fill="#990014"/>
</svg>
