<svg width="160" height="60" viewBox="0 0 160 60" fill="none" xmlns="http://www.w3.org/2000/svg">
<path d="M160 27.1833V19.6194H155.164V7.86051L155.001 7.95787L150.459 10.6572L150.369 10.7101V19.6199H143.2V14.6563C143.2 12.3452 143.466 10.5765 143.99 9.397C144.511 8.23163 145.256 7.63917 146.206 7.63917C146.889 7.63917 147.596 7.95163 148.307 8.5678L148.486 8.72257V0.756803L148.402 0.69689C147.738 0.233406 146.835 0 145.716 0C144.305 0 143.024 0.596207 141.906 1.7778C140.788 2.96106 139.908 4.65024 139.292 6.79791C138.678 8.94308 138.366 11.4207 138.366 14.1625V19.6194H134.998V27.1833H138.366V59.0485H143.2V27.1833H150.369V47.4331C150.369 55.7729 152.395 59.9992 156.389 59.9992C157.045 59.9992 157.736 59.8498 158.441 59.5573C159.159 59.2569 159.648 58.9569 159.936 58.6366L160 58.5634V50.9296L159.803 51.1821C159.541 51.5216 159.214 51.7992 158.831 52.0055C158.447 52.2156 158.125 52.3209 157.876 52.3209C156.941 52.3209 156.248 51.8312 155.819 50.8647C155.384 49.8895 155.164 48.1841 155.164 45.7984V27.1833H160ZM124.203 52.3221C122.449 52.3221 121.065 51.1921 120.09 48.9662C119.11 46.7291 118.613 43.5396 118.613 39.4873C118.613 35.3064 119.11 32.0341 120.091 29.7574C121.066 27.4958 122.436 26.3479 124.164 26.3479C125.84 26.3479 127.174 27.4442 128.13 29.6081C129.091 31.7832 129.578 35.0293 129.578 39.2589C129.578 43.5405 129.12 46.8294 128.216 49.0295C127.318 51.2129 125.968 52.3221 124.203 52.3221ZM124.418 18.6696C121.071 18.6696 118.412 20.5747 116.516 24.3321C114.622 28.0899 113.661 33.2902 113.661 39.7898C113.661 45.9632 114.599 50.9288 116.448 54.5464C118.298 58.1652 120.815 59.9983 123.929 59.9983C127.173 59.9983 129.779 58.0666 131.674 54.2572C133.569 50.452 134.529 45.3008 134.529 38.9531C134.529 32.6831 133.628 27.6805 131.851 24.087C130.073 20.4919 127.571 18.6696 124.418 18.6696ZM105.867 18.6696C103.59 18.6696 101.707 19.8008 100.268 22.0313C98.8202 24.2751 98.0859 27.2178 98.0859 30.7789C98.0859 32.6299 98.2444 34.2741 98.5563 35.6687C98.8701 37.0679 99.3558 38.2999 100.001 39.3338C100.641 40.3593 101.63 41.4336 102.939 42.5266C104.04 43.4065 104.861 44.1508 105.383 44.7375C105.893 45.3125 106.255 45.8904 106.459 46.4533C106.657 47.0041 106.758 47.758 106.758 48.6883C106.758 51.3373 105.737 52.6263 103.635 52.6263C102.856 52.6263 101.967 52.3101 100.993 51.6868C100.025 51.073 99.1127 50.1741 98.2862 49.0216L98.0855 48.742V57.7816L98.1592 57.8482C98.8431 58.4614 99.7055 58.9786 100.722 59.3855C101.736 59.7928 102.658 60 103.459 60C105.93 60 107.92 58.8633 109.371 56.6196C110.833 54.3604 111.573 51.3482 111.573 47.664C111.573 45.0062 111.174 42.7271 110.389 40.889C109.608 39.0658 108.254 37.392 106.365 35.9125C104.86 34.7393 103.896 33.7653 103.498 33.0176C103.114 32.2954 102.92 31.274 102.92 29.9804C102.92 28.8338 103.16 27.9152 103.653 27.1712C104.151 26.4236 104.843 26.0433 105.711 26.0433C106.516 26.0433 107.34 26.2905 108.16 26.7747C108.979 27.259 109.698 27.9077 110.298 28.7011L110.496 28.9632V20.3883L110.42 20.3251C109.866 19.8637 109.136 19.4688 108.248 19.1485C107.365 18.8302 106.564 18.6696 105.867 18.6696ZM85.4838 52.3221C83.7297 52.3221 82.3459 51.1921 81.3713 48.9662C80.3902 46.7291 79.8941 43.5405 79.8941 39.4873C79.8941 35.3064 80.3908 32.0341 81.3723 29.7574C82.347 27.4958 83.7168 26.3479 85.4451 26.3479C87.1206 26.3479 88.4549 27.4442 89.4109 29.6081C90.3716 31.7832 90.859 35.0293 90.859 39.2589C90.859 43.5405 90.4004 46.8294 89.4964 49.0295C88.5986 51.2129 87.2494 52.3221 85.4838 52.3221ZM85.6993 18.6696C82.351 18.6696 79.6921 20.5747 77.7974 24.3321C75.9029 28.0899 74.9418 33.2902 74.9418 39.7898C74.9418 45.9657 75.88 50.9288 77.7295 54.5464C79.579 58.1652 82.0957 59.9983 85.2097 59.9983C88.4541 59.9983 91.0605 58.0666 92.9554 54.2572C94.8497 50.452 95.81 45.3008 95.81 38.9531C95.81 32.6831 94.909 27.6805 93.1313 24.087C91.3527 20.4919 88.8521 18.6696 85.6993 18.6696ZM67.6039 26.4477V19.6194H62.8288V59.0477H67.6039V38.8786C67.6039 35.4491 68.0042 32.6315 68.7942 30.5034C69.5742 28.4007 70.6135 27.3352 71.8825 27.3352C72.3126 27.3352 72.7954 27.4729 73.3183 27.7454C73.8358 28.0163 74.2107 28.3104 74.4318 28.6199L74.6325 28.9024V19.552L74.5552 19.4876C74.1105 19.1206 73.4813 18.9355 72.6853 18.9355C71.4853 18.9355 70.4115 19.6844 69.4917 21.1588C68.6843 22.4549 68.1008 24.2318 67.6547 26.4477H67.6039ZM54.2773 18.6696C52.0866 18.6696 50.1326 19.582 48.4706 21.3806C46.8051 23.1834 45.5171 25.7571 44.6408 29.0298C43.7683 32.2945 43.3253 36.1081 43.3253 40.361C43.3253 44.0863 43.7548 47.5051 44.6037 50.5181C45.453 53.5362 46.6552 55.8973 48.1769 57.5349C49.6965 59.1704 51.4528 59.9996 53.3974 59.9996C55.6667 59.9996 57.6042 59.1184 59.1577 57.3805L59.2204 57.3106V48.8135L59.0197 49.0981C58.316 50.0938 57.5297 50.8884 56.6836 51.4609C55.8396 52.033 55.0701 52.3221 54.3954 52.3221C52.5217 52.3221 51.0175 51.1834 49.9257 48.9384C48.8315 46.6904 48.2767 43.5338 48.2767 39.5618C48.2767 35.5647 48.8553 32.327 49.9955 29.938C51.1323 27.5561 52.6393 26.3479 54.4742 26.3479C56.0437 26.3479 57.5732 27.3801 59.0201 29.4188L59.2204 29.7013V20.7482L59.1557 20.6775C58.6112 20.0854 57.8685 19.5966 56.9466 19.2259C56.0285 18.856 55.1305 18.6696 54.2773 18.6696ZM40.0366 19.6199H35.2615V59.0477H40.0366V19.6199ZM37.6979 2.82334C36.9119 2.82334 36.2265 3.343 35.6633 4.37273C35.0978 5.40538 34.811 6.70554 34.811 8.23995C34.811 9.75023 35.0944 11.0267 35.6545 12.0319C36.211 13.0341 36.8986 13.5421 37.6981 13.5421C38.4973 13.5421 39.1875 13.0341 39.7506 12.0335C40.3174 11.0267 40.6049 9.75064 40.6049 8.23995C40.6049 6.75922 40.3251 5.47236 39.774 4.41433C39.2232 3.35839 38.5245 2.82334 37.6979 2.82334ZM25.7836 16.7108V59.0477H30.6568V4.03032H23.9121L15.339 44.8956L7.01939 4.03032H0V59.0472H4.57956V16.7067H4.73679L13.5221 59.0477H16.9781L25.6264 16.7108H25.7836Z" fill="#706D6E"/>
</svg>
