<svg width="160" height="40" viewBox="0 0 160 40" fill="none" xmlns="http://www.w3.org/2000/svg">
<path fill-rule="evenodd" clip-rule="evenodd" d="M6.91015 11.4154V38.672H0V0.794365H21.271C23.9854 0.794365 26.5519 5.04217 26.5519 9.02469V38.672H19.4947V11.4154H6.91015ZM76.2494 11.5918H67.6135V38.5815H60.7538V1.06119H94.0662C95.9417 1.06119 98.1618 5.39642 98.2123 9.37894L98.1618 38.5815H91.2534V11.4154H83.0116V38.672H76.2503L76.2494 11.5918ZM105.96 38.9357C103.935 39.0262 101.617 33.892 101.617 31.1486V8.84834C101.617 5.30901 103.986 1.23754 106.107 1.23754H127.328V10.9722L108.624 10.8833V29.4679L127.328 29.3774V39.0247L105.96 38.9357ZM29.3647 25.1311C29.6119 13.4504 34.3002 14.2463 34.3002 14.2463L49.8951 14.3352V9.55682H31.6849V1.23754H52.8079C54.7818 1.50284 57.2003 5.5743 57.2491 9.64423L57.1995 38.5815H34.744C30.8793 39.1535 29.3151 32.0764 29.3151 26.1938C29.316 25.8381 29.316 25.4838 29.3647 25.1311ZM49.9943 23.0072H37.0147V29.3774L50.043 29.29L49.9943 23.0072ZM130.833 9.55682C130.833 4.68947 132.757 0 135.67 0H155.41C157.68 0.265297 159.851 4.24782 160 8.23034V31.8586C160 35.4854 157.137 39.9095 155.756 40L135.127 39.9095C132.905 40 130.833 35.3995 130.833 31.5028V9.55682ZM153.091 9.64423L137.742 9.73317V30.8833H153.091V9.64423Z" fill="#CC2229"/>
</svg>
