<svg width="160" height="60" viewBox="0 0 160 60" fill="none" xmlns="http://www.w3.org/2000/svg">
<path fill-rule="evenodd" clip-rule="evenodd" d="M20.9272 60C8.38198 59.9948 0 46.4633 0 30.0547C0 13.6448 8.40336 -0.0428604 20.9092 0.000100857H139.091C151.597 -0.0428604 160 13.6448 160 30.0547C160 46.4633 151.616 59.9948 139.07 60H20.9272Z" fill="#CC2131"/>
<path fill-rule="evenodd" clip-rule="evenodd" d="M20.9666 7.38306C11.035 7.40909 4.93726 17.5154 4.93726 30.0145C4.93726 42.5123 10.9956 52.698 20.9666 52.6421H139.031C149.001 52.698 155.063 42.5123 155.063 30.0145C155.063 17.5154 148.964 7.4104 139.031 7.38306H20.9666Z" fill="white"/>
<path fill-rule="evenodd" clip-rule="evenodd" d="M15.8737 15.8267H21.6515L29.6521 35.5212L29.6478 15.8267H35.382V44.0744H29.6555L21.6147 24.3786V44.0744H15.8711L15.8737 15.8267ZM66.5692 18.7351H72.1538V22.5352H75.1753V25.3251H72.1538L72.1572 44.0744H66.5692L66.5718 25.3251H63.5392V22.5378H66.5735L66.5692 18.7351ZM38.5771 25.2912H44.1574V44.0744H38.5771V25.2912ZM38.5651 15.8215H44.1574V21.5966H38.5651V15.8215ZM138.599 34.5318C138.599 34.5318 138.596 37.3672 138.596 38.509C138.596 41.5019 137.435 42.74 136.314 42.74C135.198 42.74 134.029 41.5019 134.029 38.509C134.029 37.3672 134.032 34.4615 134.032 34.4615C134.032 34.4615 134.037 31.6846 134.037 30.5429C134.037 27.5617 135.201 26.3353 136.314 26.3353C137.427 26.3353 138.596 27.5617 138.596 30.5429C138.596 31.6846 138.596 33.7871 138.599 34.5448V34.5318ZM136.357 24.0076C131.856 24.0076 128.206 28.7307 128.206 34.5578C128.206 40.381 131.856 45.1029 136.357 45.1029C140.864 45.1029 144.514 40.381 144.514 34.5578C144.514 28.7307 140.864 24.0076 136.357 24.0076ZM120.881 15.8267H126.387V44.0692H120.872L120.869 42.9887C118.736 45.0274 116.322 45.0222 114.444 43.693C113.941 43.3349 110.627 40.9135 110.627 34.3821C110.627 29.4194 113.703 24.0076 117.721 24.544C119.046 24.7236 119.986 25.4579 120.88 26.2195L120.881 15.8267ZM120.921 34.5878V31.2316C120.921 28.3258 119.605 27.5864 118.736 27.5864C117.845 27.5864 116.546 28.3258 116.546 31.2316C116.546 32.1898 116.549 34.58 116.549 34.58C116.549 34.58 116.546 36.9168 116.546 37.9179C116.546 40.8211 117.845 41.5787 118.736 41.5787C119.605 41.5787 120.921 40.8211 120.921 37.9179V34.5878ZM57.2191 24.4229C59.3041 24.3357 63.5392 26.4147 63.5084 33.8535C63.5024 35.171 63.5067 44.0705 63.5067 44.0705H57.9632V31.7354C57.9632 30.0964 56.9343 28.2751 55.4155 28.2751C53.8941 28.2751 52.7652 30.0964 52.7652 31.7354L52.7711 44.0705H47.2302L47.2259 25.2886L52.7703 25.2821C52.7703 25.2821 52.7643 26.7949 52.7703 27.2557C53.9726 25.5076 55.5573 24.4985 57.2191 24.4229ZM102.569 24.4229C104.65 24.3357 108.885 26.4147 108.858 33.8535C108.849 35.171 108.853 44.0705 108.853 44.0705H103.309V31.7354C103.309 30.0964 102.282 28.2751 100.762 28.2751C99.2411 28.2751 98.1088 30.0964 98.1088 31.7354L98.1173 44.0705H92.5781L92.5815 25.2886L98.1173 25.2821C98.1173 25.2821 98.1088 26.7949 98.1173 27.2557C99.3201 25.5064 100.906 24.4972 102.569 24.4229ZM80.3741 31.837C80.3639 30.194 80.3861 29.0953 80.7402 28.1501C81.1798 26.9941 81.9811 26.4434 82.7063 26.4382H82.7029C83.4332 26.4434 84.2295 26.9941 84.6656 28.1501C85.0197 29.0939 85.0402 30.194 85.0316 31.837H80.3741ZM85.0077 37.5026C85.0077 37.5026 85.0128 37.5859 85.0128 38.6444C85.0128 42.08 83.5282 42.8454 82.7063 42.8454C81.881 42.8454 80.3699 42.08 80.3699 38.6444C80.3699 37.612 80.3784 34.7648 80.3784 34.7648C80.3784 34.7648 90.8865 34.77 90.8865 34.7648C90.8865 28.9377 87.1936 24.1118 82.655 24.1118C78.1189 24.1118 74.4389 28.8349 74.4389 34.6555C74.4389 40.4839 78.1189 45.207 82.655 45.207C86.4197 45.207 89.5985 41.9341 90.5726 37.4948L85.0077 37.5026ZM144.902 22.5482H144.259V16.1157H145.871C146.866 16.1157 147.362 16.6768 147.362 17.9436C147.362 19.0931 146.888 19.5943 146.265 19.7154L147.466 22.5482H146.751L145.635 19.7583H144.902V22.5482ZM145.667 18.9317C146.21 18.9317 146.69 18.8744 146.69 17.885C146.69 17.0895 146.216 16.9398 145.773 16.9398H144.901V18.9317H145.667Z" fill="#CC2131"/>
<path fill-rule="evenodd" clip-rule="evenodd" d="M141.953 19.3144C141.953 16.1144 143.66 13.7542 145.675 13.7542C147.673 13.7542 149.375 16.1157 149.375 19.3144C149.375 22.5469 147.673 24.9058 145.675 24.9058C143.66 24.9058 141.953 22.5482 141.953 19.3144ZM145.675 23.9763C147.333 23.9763 148.638 22.0001 148.638 19.3144C148.638 16.6768 147.334 14.6824 145.675 14.6824C144 14.6824 142.692 16.6768 142.692 19.3144C142.692 22.0014 144 23.9763 145.675 23.9763Z" fill="#CC2131"/>
</svg>
