<svg width="76" height="76" viewBox="0 0 76 76" fill="none" xmlns="http://www.w3.org/2000/svg">
<g clip-path="url(#clip0_98_124)">
<path d="M14.5772 0.902344H61.4233C69.0048 0.902344 75.1513 7.03345 75.1513 14.5966V61.3283C75.1513 68.8915 69.005 75.0226 61.4233 75.0226H14.5772C6.99553 75.0226 0.849731 68.8915 0.849731 61.3283V14.5966C0.849731 7.03345 6.99553 0.902344 14.5772 0.902344Z" fill="#FFA500"/>
<path d="M61.423 75.924H14.5772C6.53941 75.924 0.000244141 69.3765 0.000244141 61.3282V14.5965C0.000244141 6.54824 6.53918 0.000732422 14.5772 0.000732422H61.4233C69.4609 0.000732422 76.0002 6.54824 76.0002 14.5965V61.3282C76.0002 69.3765 69.4609 75.924 61.423 75.924ZM14.5772 1.80401C7.47601 1.80401 1.69871 7.5425 1.69871 14.5965V61.3282C1.69871 68.382 7.47601 74.1207 14.5772 74.1207H61.4233C68.5245 74.1207 74.3018 68.382 74.3018 61.3282V14.5965C74.3018 7.54274 68.5245 1.80401 61.4233 1.80401H14.5772Z" fill="black"/>
<path d="M27.0827 13.4497L41.1899 13.4851C44.1381 13.4616 46.3397 13.9612 47.7938 14.984C49.5698 16.2377 50.4573 18.3949 50.4573 21.4554C50.4573 26.4945 48.2557 29.3494 43.853 30.0193V30.0899C45.7945 30.6033 46.7759 32.3098 46.7979 35.2094C46.7979 36.6945 46.7457 38.597 46.641 40.9167C46.641 42.4725 46.9511 43.8185 47.572 44.9547H39.8418C39.4809 44.5392 39.3006 43.6931 39.3006 42.4156C39.4484 40.2801 39.5224 38.5282 39.5224 37.1606C39.5224 34.398 38.2719 33.0168 35.771 33.0168H30.769L28.5876 44.1906H21.0579L27.0827 13.4497ZM39.0082 19.8564H33.4653L32.0197 27.2741H38.0177C41.3705 27.2741 43.0573 25.8696 43.0792 23.0599C43.0795 20.9244 41.7222 19.8564 39.0082 19.8564Z" fill="black"/>
<path d="M48.5954 44.9191L54.1767 34.6506L55.6814 44.99H65.2033L56.6126 51.5377L57.9881 61.8062L50.5499 55.6113L40.5516 62.0532L45.2285 51.1206L39.7776 44.8901L48.5954 44.9191ZM74.0361 72.0021C74.3453 72.0021 74.6468 72.0882 74.9411 72.2603C75.2357 72.4323 75.4651 72.6789 75.6289 72.9994C75.7935 73.32 75.8755 73.6541 75.8755 74.002C75.8755 74.3466 75.7949 74.6776 75.6327 74.9953C75.4772 75.3062 75.2409 75.5633 74.9519 75.7359C74.6602 75.9118 74.3549 75.9993 74.0357 75.9993C73.7174 75.9993 73.412 75.9114 73.1197 75.7359C72.8305 75.5631 72.5939 75.3062 72.4378 74.9953C72.2754 74.6776 72.1938 74.3461 72.1938 74.002C72.1938 73.6541 72.2765 73.32 72.4416 72.9994C72.6069 72.6789 72.8365 72.4325 73.1309 72.2603C73.4257 72.0879 73.7274 72.0021 74.0361 72.0021ZM74.0361 72.3329C73.7776 72.3329 73.5258 72.4049 73.2812 72.549C73.0377 72.6916 72.8381 72.9058 72.7064 73.1659C72.5682 73.4337 72.4989 73.7121 72.4989 74.0015C72.4989 74.2895 72.567 74.5656 72.7028 74.8296C72.8339 75.0883 73.0313 75.3024 73.2722 75.4469C73.5162 75.5941 73.7704 75.6681 74.0359 75.6681C74.3009 75.6681 74.5556 75.5941 74.7998 75.4469C75.0405 75.3026 75.2376 75.0885 75.3679 74.8296C75.503 74.5656 75.5704 74.2898 75.5704 74.0015C75.5704 73.7119 75.5014 73.4337 75.3643 73.1659C75.2333 72.9054 75.0336 72.691 74.7897 72.549C74.5446 72.4049 74.2933 72.3329 74.0361 72.3329ZM73.2288 75.1066V72.9557H73.9093C74.1421 72.9557 74.3103 72.9754 74.4143 73.0151C74.5186 73.0548 74.6013 73.1243 74.6629 73.2232C74.725 73.3221 74.7559 73.427 74.7559 73.5383C74.7559 73.6955 74.7044 73.8325 74.6009 73.9488C74.4978 74.0653 74.3607 74.1304 74.1898 74.1447C74.2597 74.1768 74.3159 74.2146 74.3578 74.2588C74.438 74.3435 74.5352 74.4857 74.6508 74.685L74.8923 75.1064H74.5021L74.3267 74.7673C74.1885 74.5009 74.0769 74.3338 73.9924 74.2667C73.9338 74.217 73.8484 74.1923 73.7359 74.1923H73.5482V75.1064H73.2288V75.1066ZM73.5482 73.8957H73.9362C74.1219 73.8957 74.2483 73.8658 74.3157 73.8054C74.3829 73.7459 74.4167 73.666 74.4167 73.5671C74.4174 73.5062 74.4004 73.4465 74.3679 73.3963C74.3345 73.3453 74.2873 73.3061 74.2326 73.2838C74.1748 73.2593 74.0682 73.2465 73.912 73.2465H73.5482V73.8957Z" fill="black"/>
<path d="M55.1022 50.8029L60.8079 46.4887H54.4958L53.4024 39.0063L49.3966 46.4183H43.0197L46.8955 50.8384L43.691 58.2562L50.6471 53.801L56.1309 58.3621L55.1022 50.8029Z" fill="white"/>
</g>
<defs>
<clipPath id="clip0_98_124">
<rect width="76" height="76" fill="white"/>
</clipPath>
</defs>
</svg>
