<svg width="160" height="60" viewBox="0 0 160 60" fill="none" xmlns="http://www.w3.org/2000/svg">
<path d="M0.00854492 60L21.1501 59.9735C29.7998 59.9735 36.8096 51.3054 36.8096 40.6249C36.8096 29.9234 29.7998 21.2546 21.1501 21.2546L15.6595 21.2917C15.2268 21.2917 14.876 20.8516 14.876 20.31C14.876 19.7684 15.2268 19.3276 15.6595 19.3276L36.7627 19.3332L36.7712 11.1213H15.655C11.5725 11.1213 8.25092 15.235 8.25092 20.289C8.25092 25.348 11.5719 29.4455 15.655 29.4455L21.1715 29.5358C26.1274 29.5358 30.1377 34.4933 30.1377 40.6095C30.1377 46.7299 26.1279 51.6986 21.1715 51.6986H0.0170067L0.00854492 60Z" fill="#0060A8"/>
<path d="M0.0169238 49.7708H21.1715C25.267 49.7708 28.5795 45.6733 28.5795 40.6087C28.5795 35.5498 25.267 31.4571 21.1715 31.4571L15.6549 31.383C10.7076 31.383 6.6933 26.4199 6.6933 20.2883C6.6933 14.1734 10.7076 9.20965 15.6549 9.20965L36.7711 9.20406L36.7626 0.960693H15.6594C7.0188 0.960693 0 9.61899 0 20.31C0 31.0009 7.0188 39.6641 15.6594 39.6641L21.1201 39.6746C21.5353 39.6746 21.8862 40.0944 21.8862 40.6248C21.8862 41.1454 21.5353 41.5645 21.1201 41.5645L0.00846201 41.5855L0.0169238 49.7708ZM53.2006 51.751C49.5327 51.751 46.5281 48.1251 46.5281 43.4958V17.2998C46.5281 12.8461 49.5327 9.18306 53.2006 9.18306L75.7671 9.18796V0.960693H53.2006C45.8568 0.960693 39.9082 8.31262 39.9082 17.39V43.4965C39.9082 52.5746 45.8568 59.937 53.2006 59.937L75.6729 59.9482L75.6684 51.7412L53.2006 51.751Z" fill="#0060A8"/>
<path d="M48.1462 17.39C48.1462 13.9187 50.3976 11.1052 53.2007 11.1052H75.7672V19.3436H56.3248C54.7672 19.3436 54.7458 21.2602 54.7458 21.2602H70.966V29.4616H48.1383L48.1462 17.39ZM53.2007 49.7554C50.406 49.7554 48.1377 46.958 48.1377 43.4965V31.4145H70.9654V39.6326H54.7452C54.7667 41.5645 56.3242 41.5743 56.3242 41.5743H75.6724L75.6679 49.7442L53.2007 49.7554ZM91.5812 51.73C87.9263 51.73 84.9393 48.0355 84.9393 43.4958V17.3893C84.9393 12.8454 87.9048 9.18236 91.5637 9.18236H113.421V0.960693H91.513C84.1726 0.960693 78.224 8.31262 78.224 17.39V43.4965C78.224 52.5746 84.224 59.937 91.5637 59.937L113.421 59.9482V21.2602H94.6371V29.4616H106.783V51.73H91.5812Z" fill="#0060A8"/>
<path d="M86.4967 43.4958C86.4967 46.9741 88.7651 49.803 91.5637 49.803H105.216V31.404H94.6534V39.6326H98.5734L98.5858 41.5646H94.6833C93.8314 41.5646 93.1342 40.6892 93.1342 39.6326L93.0992 21.2546C93.0992 21.2546 93.0947 19.3437 94.6658 19.2961H113.428L113.419 11.0996L91.5625 11.1052C90.2187 11.1052 88.9299 11.7673 87.9797 12.946C87.0294 14.1246 86.4956 15.7232 86.4956 17.39V43.4958M133.959 10.9827C134.107 10.4579 134.383 10.0031 134.748 9.68135C135.114 9.3596 135.551 9.18677 136 9.18677C136.448 9.18677 136.885 9.3596 137.251 9.68135C137.617 10.0031 137.893 10.4579 138.041 10.9827L148.651 49.8611H133.115L133.132 40.7151H138.324L135.987 32.0995L128.373 59.9412H120.541L133.959 10.9827Z" fill="#0060A8"/>
<path d="M150.79 51.73H133.141V59.9412H160L146.031 8.67858C144.807 3.67841 140.772 0 135.995 0C131.211 0 127.188 3.66232 125.955 8.65829L111.858 59.9419H118.89L132.576 10.0913C132.857 9.25728 133.33 8.54491 133.936 8.04415C134.542 7.5434 135.255 7.2767 135.983 7.27775C136.711 7.27908 137.422 7.54546 138.028 8.0438C138.634 8.54214 139.109 9.25048 139.394 10.0808L150.79 51.73Z" fill="#0060A8"/>
</svg>
