<svg width="160" height="60" viewBox="0 0 160 60" fill="none" xmlns="http://www.w3.org/2000/svg">
<path fill-rule="evenodd" clip-rule="evenodd" d="M157.568 48.4509C157.244 48.4378 156.922 48.5638 156.62 48.8215C156.319 49.0792 156.045 49.4633 155.814 49.9516C155.582 50.4398 155.399 51.0223 155.273 51.6651C155.148 52.3078 155.083 52.9978 155.083 53.6949C155.083 54.3919 155.148 55.0819 155.273 55.7246C155.399 56.3674 155.582 56.9499 155.814 57.4381C156.045 57.9264 156.319 58.3105 156.62 58.5682C156.922 58.8259 157.244 58.9519 157.568 58.9388C157.888 58.9381 158.205 58.8015 158.501 58.5368C158.797 58.2721 159.065 57.8845 159.291 57.3962C159.517 56.908 159.696 56.3287 159.818 55.6915C159.939 55.0543 160.001 54.3717 160 53.6829C160 52.9959 159.937 52.3156 159.815 51.6808C159.693 51.0461 159.514 50.4693 159.288 49.9834C159.062 49.4975 158.794 49.1121 158.499 48.8492C158.204 48.5862 157.887 48.4509 157.568 48.4509ZM157.568 58.308C157.286 58.3088 157.006 58.1895 156.745 57.9572C156.484 57.7249 156.248 57.384 156.048 56.9542C155.849 56.5244 155.691 56.0142 155.584 55.4527C155.476 54.8913 155.422 54.2899 155.423 53.6829C155.423 53.0779 155.479 52.4788 155.586 51.9201C155.694 51.3613 155.852 50.8538 156.052 50.4266C156.251 49.9994 156.487 49.6609 156.748 49.4304C157.008 49.1999 157.286 49.082 157.568 49.0835C157.849 49.0835 158.127 49.2025 158.386 49.4336C158.646 49.6648 158.881 50.0036 159.08 50.4307C159.278 50.8579 159.436 51.3649 159.543 51.9229C159.651 52.4809 159.706 53.079 159.706 53.6829C159.707 54.2888 159.653 54.8893 159.546 55.4499C159.439 56.0106 159.282 56.5204 159.083 56.9501C158.885 57.3798 158.649 57.7209 158.389 57.954C158.128 58.187 157.85 58.3073 157.568 58.308Z" fill="black"/>
<path fill-rule="evenodd" clip-rule="evenodd" d="M158.819 52.311C158.819 51.8163 158.717 51.2959 158.514 51.0476C158.309 50.7865 158.079 50.7607 157.849 50.7607H156.661V56.6217H156.994V53.9183H157.607L158.386 56.6217H158.782L157.958 53.9183C158.444 53.8889 158.819 53.4641 158.819 52.311ZM157.505 53.3538H156.993V51.2812H157.772C158.11 51.2812 158.481 51.3915 158.481 52.2982C158.482 53.4917 157.887 53.3538 157.505 53.3538ZM143.273 23.9754L148.259 12.5274C148.548 11.687 148.692 11.0985 148.692 10.5946C148.692 9.75419 148.356 9.41765 147.298 9.41765H146.04V2.19028H159.657V9.41765H157.868C155.802 9.41765 155.418 10.0889 152.535 17.9047L144.647 36.2214V47.399C144.647 50.2587 145.319 51.2646 147.241 51.2646H150.219V58.2382H131.147V51.2646H134.125C136.045 51.2646 136.719 50.2587 136.719 47.399V36.2214L127.428 14.1219C125.893 10.2581 126.105 9.41765 121.831 9.41765V2.19028H139.079V9.41765H137.851C136.601 9.41765 136.072 9.92154 136.072 10.9293C136.072 11.7716 136.456 12.4428 136.696 13.1141L141.397 24.1298C141.955 25.3785 142.637 25.5404 143.273 23.9754ZM27.5467 2.18844H31.7074V22.3552H27.8649C27.5245 18.324 26.3511 16.7553 25.2812 14.6405C23.351 10.8263 19.1707 7.65033 15.6549 7.65033C11.117 7.65033 7.28735 10.6774 7.28735 15.1278C7.28735 27.4824 33.2391 17.6509 33.2391 41.0102C33.2391 53.1938 27.6801 60 17.6971 60C14.2412 60 9.01148 57.6939 5.92584 54.1703C4.95858 52.9694 4.54808 55.3068 4.36677 58.2364H0.100916V37.3966H3.95968C4.81063 42.6911 5.98314 43.7816 7.06158 45.8836C8.9328 49.5819 13.3868 52.2724 17.4714 52.186C23.6298 52.0554 25.7473 49.1608 25.7473 44.9586C25.7473 40.7583 23.6529 39.7487 16.9043 37.4811L11.1743 35.4637C4.708 33.3617 0 30.2538 0 19.1626C0 7.65034 5.95577 0.422968 15.3726 0.422968C19.3409 0.422968 22.6608 1.56317 25.8474 5.43616C26.73 6.67014 27.5578 6.81727 27.5467 2.18844ZM108.745 35.9529L108.827 13.5389C108.827 10.5983 108.116 9.5905 106.083 9.5905H103.694V2.61692H118.891V9.5905H116.911C114.876 9.5905 114.165 10.6001 114.165 13.5389V58.663L108.216 58.5619L88.9535 19.3373V47.8238C88.9535 50.6817 89.665 51.7722 91.6979 51.7722H94.3422V58.663H78.5591V51.7722H81.1743C83.2072 51.7722 83.9188 50.6798 83.9188 47.8238V13.5389C83.9188 10.5983 83.2072 9.5905 81.1743 9.5905H78.5591V2.61692H92.205L108.745 35.9529ZM57.8396 0C45.7279 0 38.1464 11.5141 38.1464 29.9982C38.1464 48.1512 45.6227 59.577 57.4701 59.577C70.0539 59.577 77.3737 48.3185 77.3737 29.075C77.3746 11.7661 69.4758 0 57.8396 0ZM57.5642 52.2687C50.8601 52.2687 47.0065 43.949 47.0065 29.5789C47.0065 15.5471 51.0277 7.22736 57.8995 7.22736C64.4915 7.22736 68.3451 15.7163 68.3451 30.1692C68.3451 44.2855 64.4351 52.2687 57.5642 52.2687Z" fill="black"/>
</svg>
