<svg width="160" height="30" viewBox="0 0 160 30" fill="none" xmlns="http://www.w3.org/2000/svg">
<path d="M20.8592 0C19.4298 0 18.2785 2.05887 18.2785 4.61503V21.9225C18.2785 24.4787 19.4298 26.5376 20.8592 26.5376H24.3002V30H27.5255V26.5376H31.1823C32.6117 26.5376 33.763 24.4787 33.763 21.9225V4.61503C33.763 2.05887 32.6117 0 31.1823 0H20.8592ZM21.5064 4.61503H30.3246V21.5368H27.5281V18.8459H24.3002V21.5368H21.5064V4.61503ZM3.00959 0C1.58016 0 0.428828 2.05887 0.428828 4.61503V10.7684C0.428828 13.3246 1.58016 15.3834 3.00959 15.3834H12.9012V21.5368H0V21.9225C0 24.4787 1.15134 26.5376 2.58076 26.5376H13.1169C14.5464 26.5376 15.6977 24.4787 15.6977 21.9225V14.9977C15.6977 12.4415 14.5464 10.3826 13.1169 10.3826H3.2253V4.61503H12.4724V6.92022H15.482V4.61503C15.482 2.05887 14.3306 0 12.9012 0H3.00959ZM36.3438 0V21.9225C36.3438 24.4787 37.4951 26.5376 38.9246 26.5376H48.1742C49.6037 26.5376 50.755 24.4787 50.755 21.9225V0H47.5271V21.5368H39.5691V0H36.3438ZM58.817 0.385747L51.3969 26.5376H54.6222L56.2622 20.7699H64.5944L66.2344 26.5376H69.4597L62.0423 0.385747L61.9357 0H58.9261L58.817 0.385747ZM60.4309 6.06971L63.295 16.1549H57.5669L60.4309 6.06971ZM70.9671 0V26.5329H74.1924V16.536H76.2352L81.6124 26.5329H85.9137L80.5364 16.536H82.1504C83.5798 16.536 84.7311 14.4771 84.7311 11.921V4.61503C84.7311 2.05887 83.5798 0 82.1504 0H70.9671ZM74.1924 4.61503H80.6456C81.1212 4.61503 81.5058 5.30287 81.5058 6.15337V10.3826C81.5058 11.2332 81.1212 11.921 80.6456 11.921H74.195V4.61503H74.1924ZM87.5276 0V26.5329H100V21.5368H90.7529V4.61503H100V0H87.5276Z" fill="black"/>
<path d="M93 10.9092H99V15.4546H93V10.9092Z" fill="#E20A16"/>
<path d="M106 0V26.3636H119V21.3994H109.362V4.58558H119V0H106Z" fill="black"/>
<path d="M112 10.9092H118V15.4546H112V10.9092Z" fill="#E20A16"/>
<path d="M121 0V26.3636H124.014V7.71056L131.769 24.1151L131.985 24.5676L132.834 26.359H135V0H131.769V17.7435L124.017 1.33896L123.384 0H121ZM137.587 0H141.034V26.359H137.587V0ZM142.741 0L149.21 12.7386L142.7 26.359H146.576L151.207 16.677L156.124 26.359H160L153.086 12.7386L159.18 0H155.304L151.09 8.80943L146.62 0H142.741Z" fill="black"/>
</svg>
