<svg width="160" height="60" viewBox="0 0 160 60" fill="none" xmlns="http://www.w3.org/2000/svg">
<path fill-rule="evenodd" clip-rule="evenodd" d="M136.863 53.4114C133.848 59.5892 132.729 59.7286 130.921 59.7286H1.92658C0.376193 59.7286 -0.829154 58.4918 0.721228 55.0589L24.7462 2.88424C26.2101 -0.547237 27.3299 0.275797 29.0514 0.137899L158.045 0C160.113 0 160.629 1.64751 159.165 5.08044L136.863 53.4114Z" fill="#0C0E0F"/>
<path fill-rule="evenodd" clip-rule="evenodd" d="M29.137 11.1218L25.0039 19.6352H39.3843L28.1902 42.5639H40.5906L49.8046 23.4789H44.6372C44.6372 23.4789 46.1011 19.4973 49.1154 19.4973H60.9986L65.1327 11.1218H29.137ZM67.1119 11.1218L51.8702 42.4246H64.2706L71.2459 28.4215H79.4266L72.7098 42.4246H85.1101L97.0799 17.8498C97.0799 17.8498 100.266 11.1218 95.0124 11.1218H87.9514L81.9238 23.2046H67.9731C67.9731 23.2046 69.0064 19.3608 72.0197 19.3608H75.6367L79.5978 11.1233L67.1119 11.1218ZM99.7482 42.2896H92.6873C87.3479 42.2896 90.1892 36.3876 90.1892 36.3876L99.8338 16.6145C102.332 11.1218 106.466 11.1218 106.466 11.1218H132.729C138.671 11.1218 135.572 17.7133 135.572 17.7133L124.893 39.8176H122.224C119.295 39.8176 118.004 44.0765 118.004 44.0765H131.868L129.63 48.7432H96.5618L99.7482 42.2896Z" fill="white"/>
<path fill-rule="evenodd" clip-rule="evenodd" d="M114.99 35.4253C114.387 36.6591 113.182 37.62 112.234 37.62H103.537C102.677 37.62 102.417 36.5227 103.02 35.2874L110.426 20.0475C111.029 18.6744 112.234 17.8513 113.097 17.8513H121.879C122.826 17.8513 123.084 18.8122 122.396 20.0475L114.99 35.4253Z" fill="#0C0E0F"/>
<path fill-rule="evenodd" clip-rule="evenodd" d="M95.2709 48.6053H25.2625L27.5011 44.075H97.5095L95.2709 48.6053Z" fill="#C82E37"/>
<path fill-rule="evenodd" clip-rule="evenodd" d="M137.637 54.9224H140.221V55.4696H139.101V59.9999H138.671V55.4696H137.637V54.9224ZM143.235 59.9999V56.9807V55.7439L142.373 59.9999H141.943L140.997 55.7439V59.9999H140.564V54.9224H141.254L142.115 59.1783L143.062 54.9224H143.665V59.9999H143.235Z" fill="#0C0E0F"/>
</svg>
