<svg width="160" height="60" viewBox="0 0 160 60" fill="none" xmlns="http://www.w3.org/2000/svg">
<path d="M55.4164 33.297L52.3191 18.3669L49.4824 33.297H55.4164Z" fill="#F74843"/>
<path d="M17.2844 12.4055L22.4587 39.099L27.5229 12.4055H33.1009L24.9174 47.7393H20L12 12.4055H17.2844ZM48.5872 12.4055H55.8165L63.4495 47.7876H58.0184L56.2202 38.9541H48.1835C48.1835 38.9541 46.789 46.0499 46.4954 47.6428C44.8807 47.7876 40.9541 47.6428 40.9541 47.6428L48.5872 12.4055ZM76.4771 12.4055H81.7615V41.8021H93.0275V47.7393H76.4771V12.4055ZM104.917 12.4055L110.092 38.7611L115.119 12.4055H120.55L112.404 47.7876H107.633L99.4862 12.4055H104.917ZM142.936 12.4055V16.9911H135.706V22.1078H142.312V26.6935H135.706V31.9549H142.936V36.5406H131.67V12.4055H142.936ZM0 60H160V0H0" fill="#F74843"/>
</svg>
