<svg width="160" height="60" viewBox="0 0 160 60" fill="none" xmlns="http://www.w3.org/2000/svg">
<g clip-path="url(#clip0_99_191)">
<path d="M156.168 48.4629L146.85 32.8633L137.543 48.4629H133.708L144.91 29.6153L134.68 12.4832H138.514L146.85 26.4557L155.187 12.4832H159.018L148.796 29.6122L160 48.4629H156.168ZM83.561 48.4566L72.3464 29.6122L82.5768 12.4832H78.7423L70.4036 26.4588L62.0726 12.4832H58.2483L68.4736 29.6122L57.2616 48.4566H61.1012L70.4087 32.8633L79.724 48.4566H83.561Z" fill="#0F7C10"/>
<path d="M104.881 30.9745C104.303 30.367 103.659 29.8618 102.969 29.4735C104.029 28.7787 104.915 27.7408 105.533 26.4713C106.151 25.2019 106.477 23.7488 106.476 22.2681C106.476 19.9661 105.788 12.4801 96.9944 12.4801H85.151V27.9914H81.2066C80.6953 28.8144 79.5322 30.7916 79.09 31.602H85.151V48.4567L96.997 48.4598C103.413 48.4598 107.399 44.4425 107.399 37.956C107.399 35.1243 106.532 32.7183 104.881 30.9745ZM88.4256 16.2357H96.997C99.3156 16.2357 103.201 16.9484 103.201 21.9527C103.201 25.7368 100.939 27.9914 96.997 27.9914H88.4256V16.2357ZM96.9944 44.7073H88.4231V31.6115H96.9944C100.244 31.6115 104.132 32.7183 104.132 37.8772C104.132 43.8181 99.6607 44.7073 96.9944 44.7073ZM122.806 11.6539C114.613 11.6539 108.886 19.3828 108.886 30.451C108.886 41.5351 114.613 49.2576 122.806 49.2576C130.991 49.2576 136.702 41.5351 136.702 30.451C136.702 19.3828 130.991 11.6539 122.806 11.6539ZM122.806 45.4515C116.563 45.4515 112.189 39.2804 112.189 30.451C112.189 21.6216 116.563 15.4537 122.806 15.4537C129.038 15.4537 133.386 21.6216 133.386 30.451C133.386 39.2804 129.038 45.4515 122.806 45.4515ZM7.25486 8.63297L7.23185 8.65819C4.93788 11.4442 3.11689 14.7693 1.87521 18.433C0.633537 22.0968 -0.00393501 26.029 2.25659e-05 30.0001C-0.00724124 36.5648 1.73931 42.9495 4.96951 48.1666C5.00274 48.217 5.05387 48.2454 5.09988 48.217C5.14334 48.1855 5.14589 48.1193 5.128 48.0625C3.27467 40.9927 12.7484 23.8574 17.6437 16.674C17.6591 16.6488 17.6795 16.6204 17.6795 16.5857C17.6795 16.5447 17.6565 16.5132 17.6335 16.488C9.39961 6.37832 7.20117 8.68973 7.23185 8.65819M41.3715 8.63297L41.3945 8.65819C43.6882 11.4443 45.5089 14.7694 46.7502 18.4332C47.9914 22.097 48.6283 26.0292 48.6238 30.0001C48.631 36.5648 46.8845 42.9495 43.6543 48.1666C43.6236 48.217 43.5699 48.2454 43.5239 48.217C43.483 48.1855 43.4805 48.1193 43.4958 48.0625C45.3491 40.9927 35.8831 23.8447 30.9903 16.6583C30.9724 16.633 30.9545 16.6046 30.9545 16.5731C30.9545 16.529 30.9749 16.4974 31.0005 16.4722C39.237 6.36255 41.4201 8.68973 41.3919 8.65819M24.3132 0.00854492C29.2187 0.00854492 33.2552 1.66721 36.9772 4.39801C37.0232 4.42639 37.036 4.48946 37.0181 4.54622C37.0002 4.59983 36.9491 4.61244 36.9005 4.59668C32.1943 3.34164 25.0392 8.35863 24.3643 8.86001C24.349 8.87262 24.3336 8.88524 24.3132 8.88524C24.2902 8.88524 24.2748 8.87262 24.2595 8.86001C22.465 7.58921 15.8518 3.31326 11.6875 4.62821C11.6415 4.64082 11.5904 4.63136 11.5699 4.5746C11.5612 4.54795 11.5605 4.51832 11.568 4.49112C11.5755 4.46391 11.5907 4.44094 11.6108 4.42639C15.3328 1.66721 19.4204 0.00854492 24.3132 0.00854492ZM24.3132 24.0623C24.3413 24.0623 24.372 24.0907 24.3899 24.1096C31.6651 30.9335 44.117 47.8039 40.3157 52.575L40.3208 52.5686L40.3183 52.575H40.3157C35.8904 57.3664 30.1988 60.0042 24.3106 59.9948C18.4218 60.0035 12.7321 57.3658 8.3055 52.575C4.51193 47.8039 16.9612 30.9335 24.2288 24.1096C24.2493 24.0907 24.2825 24.0623 24.3132 24.0623Z" fill="#0F7C10"/>
</g>
<defs>
<clipPath id="clip0_99_191">
<rect width="160" height="60" fill="white"/>
</clipPath>
</defs>
</svg>
